<svg width="2560" height="1440" viewBox="0 0 2560 1440" fill="none" xmlns="http://www.w3.org/2000/svg">
<g clip-path="url(#clip0_214_1692)">
<rect width="2560" height="1440" fill="#810515"/>
<rect x="9.74927" y="1227.11" width="8" height="8" transform="rotate(-13.618 9.74927 1227.11)" fill="#B0071D"/>
<rect x="29.0667" y="1238.89" width="8" height="8" transform="rotate(-13.618 29.0667 1238.89)" fill="#B0071D"/>
<rect x="0.0905762" y="1221.22" width="8" height="8" transform="rotate(-13.618 0.0905762 1221.22)" fill="#B0071D"/>
<rect x="19.408" y="1233" width="8" height="8" transform="rotate(-13.618 19.408 1233)" fill="#B0071D"/>
<rect x="48.384" y="1250.67" width="8" height="8" transform="rotate(-13.618 48.384 1250.67)" fill="#B0071D"/>
<rect x="67.7014" y="1262.46" width="8" height="8" transform="rotate(-13.618 67.7014 1262.46)" fill="#B0071D"/>
<rect x="58.0427" y="1256.56" width="8" height="8" transform="rotate(-13.618 58.0427 1256.56)" fill="#B0071D"/>
<rect x="77.3601" y="1268.35" width="8" height="8" transform="rotate(-13.618 77.3601 1268.35)" fill="#B0071D"/>
<rect x="22.9343" y="1281.53" width="8" height="8" transform="rotate(-103.618 22.9343 1281.53)" fill="#B0071D"/>
<rect x="34.7175" y="1262.22" width="8" height="8" transform="rotate(-103.618 34.7175 1262.22)" fill="#B0071D"/>
<rect x="17.043" y="1291.19" width="8" height="8" transform="rotate(-103.618 17.043 1291.19)" fill="#B0071D"/>
<rect x="28.8259" y="1271.87" width="8" height="8" transform="rotate(-103.618 28.8259 1271.87)" fill="#B0071D"/>
<rect x="46.5005" y="1242.9" width="8" height="8" transform="rotate(-103.618 46.5005 1242.9)" fill="#B0071D"/>
<rect x="58.2834" y="1223.58" width="8" height="8" transform="rotate(-103.618 58.2834 1223.58)" fill="#B0071D"/>
<rect x="52.3921" y="1233.24" width="8" height="8" transform="rotate(-103.618 52.3921 1233.24)" fill="#B0071D"/>
<rect x="64.175" y="1213.92" width="8" height="8" transform="rotate(-103.618 64.175 1213.92)" fill="#B0071D"/>
<rect x="38.7253" y="1244.78" width="8" height="8" transform="rotate(-13.618 38.7253 1244.78)" fill="#B0071D"/>
<rect x="-5.94263" y="1383.19" width="8" height="8" transform="rotate(-13.618 -5.94263 1383.19)" fill="#B0071D"/>
<rect x="3.71606" y="1389.08" width="8" height="8" transform="rotate(-13.618 3.71606 1389.08)" fill="#B0071D"/>
<rect x="56.8386" y="1421.48" width="8" height="8" transform="rotate(-13.618 56.8386 1421.48)" fill="#B0071D"/>
<rect x="76.156" y="1433.27" width="8" height="8" transform="rotate(-13.618 76.156 1433.27)" fill="#B0071D"/>
<rect x="47.1799" y="1415.59" width="8" height="8" transform="rotate(-13.618 47.1799 1415.59)" fill="#B0071D"/>
<rect x="66.4973" y="1427.38" width="8" height="8" transform="rotate(-13.618 66.4973 1427.38)" fill="#B0071D"/>
<rect x="93.5898" y="1437.28" width="8" height="8" transform="rotate(-103.618 93.5898 1437.28)" fill="#B0071D"/>
<rect x="105.373" y="1417.96" width="8" height="8" transform="rotate(-103.618 105.373 1417.96)" fill="#B0071D"/>
<rect x="99.4814" y="1427.62" width="8" height="8" transform="rotate(-103.618 99.4814 1427.62)" fill="#B0071D"/>
<rect x="111.264" y="1408.3" width="8" height="8" transform="rotate(-103.618 111.264 1408.3)" fill="#B0071D"/>
<rect x="85.8147" y="1439.16" width="8" height="8" transform="rotate(-13.618 85.8147 1439.16)" fill="#B0071D"/>
<rect x="277.771" y="1059.28" width="8" height="8" transform="rotate(-13.618 277.771 1059.28)" fill="#B0071D"/>
<rect x="297.088" y="1071.07" width="8" height="8" transform="rotate(-13.618 297.088 1071.07)" fill="#B0071D"/>
<rect x="268.112" y="1053.39" width="8" height="8" transform="rotate(-13.618 268.112 1053.39)" fill="#B0071D"/>
<rect x="287.429" y="1065.18" width="8" height="8" transform="rotate(-13.618 287.429 1065.18)" fill="#B0071D"/>
<rect x="316.405" y="1082.85" width="8" height="8" transform="rotate(-13.618 316.405 1082.85)" fill="#B0071D"/>
<rect x="335.723" y="1094.63" width="8" height="8" transform="rotate(-13.618 335.723 1094.63)" fill="#B0071D"/>
<rect x="326.064" y="1088.74" width="8" height="8" transform="rotate(-13.618 326.064 1088.74)" fill="#B0071D"/>
<rect x="345.381" y="1100.52" width="8" height="8" transform="rotate(-13.618 345.381 1100.52)" fill="#B0071D"/>
<rect x="290.956" y="1113.71" width="8" height="8" transform="rotate(-103.618 290.956 1113.71)" fill="#B0071D"/>
<rect x="302.739" y="1094.39" width="8" height="8" transform="rotate(-103.618 302.739 1094.39)" fill="#B0071D"/>
<rect x="285.064" y="1123.37" width="8" height="8" transform="rotate(-103.618 285.064 1123.37)" fill="#B0071D"/>
<rect x="296.847" y="1104.05" width="8" height="8" transform="rotate(-103.618 296.847 1104.05)" fill="#B0071D"/>
<rect x="314.522" y="1075.07" width="8" height="8" transform="rotate(-103.618 314.522 1075.07)" fill="#B0071D"/>
<rect x="326.305" y="1055.76" width="8" height="8" transform="rotate(-103.618 326.305 1055.76)" fill="#B0071D"/>
<rect x="320.413" y="1065.42" width="8" height="8" transform="rotate(-103.618 320.413 1065.42)" fill="#B0071D"/>
<rect x="332.196" y="1046.1" width="8" height="8" transform="rotate(-103.618 332.196 1046.1)" fill="#B0071D"/>
<rect x="306.747" y="1076.96" width="8" height="8" transform="rotate(-13.618 306.747 1076.96)" fill="#B0071D"/>
<rect x="398.504" y="1132.93" width="8" height="8" transform="rotate(-13.618 398.504 1132.93)" fill="#B0071D"/>
<rect x="417.822" y="1144.71" width="8" height="8" transform="rotate(-13.618 417.822 1144.71)" fill="#B0071D"/>
<rect x="388.846" y="1127.04" width="8" height="8" transform="rotate(-13.618 388.846 1127.04)" fill="#B0071D"/>
<rect x="408.163" y="1138.82" width="8" height="8" transform="rotate(-13.618 408.163 1138.82)" fill="#B0071D"/>
<rect x="437.139" y="1156.49" width="8" height="8" transform="rotate(-13.618 437.139 1156.49)" fill="#B0071D"/>
<rect x="456.457" y="1168.28" width="8" height="8" transform="rotate(-13.618 456.457 1168.28)" fill="#B0071D"/>
<rect x="446.798" y="1162.39" width="8" height="8" transform="rotate(-13.618 446.798 1162.39)" fill="#B0071D"/>
<rect x="466.115" y="1174.17" width="8" height="8" transform="rotate(-13.618 466.115 1174.17)" fill="#B0071D"/>
<rect x="411.689" y="1187.35" width="8" height="8" transform="rotate(-103.618 411.689 1187.35)" fill="#B0071D"/>
<rect x="423.472" y="1168.04" width="8" height="8" transform="rotate(-103.618 423.472 1168.04)" fill="#B0071D"/>
<rect x="405.798" y="1197.01" width="8" height="8" transform="rotate(-103.618 405.798 1197.01)" fill="#B0071D"/>
<rect x="417.581" y="1177.69" width="8" height="8" transform="rotate(-103.618 417.581 1177.69)" fill="#B0071D"/>
<rect x="435.255" y="1148.72" width="8" height="8" transform="rotate(-103.618 435.255 1148.72)" fill="#B0071D"/>
<rect x="447.039" y="1129.4" width="8" height="8" transform="rotate(-103.618 447.039 1129.4)" fill="#B0071D"/>
<rect x="441.147" y="1139.06" width="8" height="8" transform="rotate(-103.618 441.147 1139.06)" fill="#B0071D"/>
<rect x="452.93" y="1119.74" width="8" height="8" transform="rotate(-103.618 452.93 1119.74)" fill="#B0071D"/>
<rect x="427.48" y="1150.6" width="8" height="8" transform="rotate(-13.618 427.48 1150.6)" fill="#B0071D"/>
<rect x="324.86" y="1253.66" width="8" height="8" transform="rotate(-13.618 324.86 1253.66)" fill="#B0071D"/>
<rect x="344.178" y="1265.44" width="8" height="8" transform="rotate(-13.618 344.178 1265.44)" fill="#B0071D"/>
<rect x="315.201" y="1247.77" width="8" height="8" transform="rotate(-13.618 315.201 1247.77)" fill="#B0071D"/>
<rect x="334.519" y="1259.55" width="8" height="8" transform="rotate(-13.618 334.519 1259.55)" fill="#B0071D"/>
<rect x="363.495" y="1277.23" width="8" height="8" transform="rotate(-13.618 363.495 1277.23)" fill="#B0071D"/>
<rect x="382.812" y="1289.01" width="8" height="8" transform="rotate(-13.618 382.812 1289.01)" fill="#B0071D"/>
<rect x="373.154" y="1283.12" width="8" height="8" transform="rotate(-13.618 373.154 1283.12)" fill="#B0071D"/>
<rect x="392.471" y="1294.9" width="8" height="8" transform="rotate(-13.618 392.471 1294.9)" fill="#B0071D"/>
<rect x="338.045" y="1308.09" width="8" height="8" transform="rotate(-103.618 338.045 1308.09)" fill="#B0071D"/>
<rect x="349.828" y="1288.77" width="8" height="8" transform="rotate(-103.618 349.828 1288.77)" fill="#B0071D"/>
<rect x="332.154" y="1317.75" width="8" height="8" transform="rotate(-103.618 332.154 1317.75)" fill="#B0071D"/>
<rect x="343.937" y="1298.43" width="8" height="8" transform="rotate(-103.618 343.937 1298.43)" fill="#B0071D"/>
<rect x="361.611" y="1269.45" width="8" height="8" transform="rotate(-103.618 361.611 1269.45)" fill="#B0071D"/>
<rect x="373.395" y="1250.13" width="8" height="8" transform="rotate(-103.618 373.395 1250.13)" fill="#B0071D"/>
<rect x="367.503" y="1259.79" width="8" height="8" transform="rotate(-103.618 367.503 1259.79)" fill="#B0071D"/>
<rect x="379.286" y="1240.48" width="8" height="8" transform="rotate(-103.618 379.286 1240.48)" fill="#B0071D"/>
<rect x="353.836" y="1271.34" width="8" height="8" transform="rotate(-13.618 353.836 1271.34)" fill="#B0071D"/>
<rect x="445.594" y="1327.31" width="8" height="8" transform="rotate(-13.618 445.594 1327.31)" fill="#B0071D"/>
<rect x="464.911" y="1339.09" width="8" height="8" transform="rotate(-13.618 464.911 1339.09)" fill="#B0071D"/>
<rect x="435.935" y="1321.41" width="8" height="8" transform="rotate(-13.618 435.935 1321.41)" fill="#B0071D"/>
<rect x="455.252" y="1333.2" width="8" height="8" transform="rotate(-13.618 455.252 1333.2)" fill="#B0071D"/>
<rect x="484.229" y="1350.87" width="8" height="8" transform="rotate(-13.618 484.229 1350.87)" fill="#B0071D"/>
<rect x="503.546" y="1362.65" width="8" height="8" transform="rotate(-13.618 503.546 1362.65)" fill="#B0071D"/>
<rect x="493.887" y="1356.76" width="8" height="8" transform="rotate(-13.618 493.887 1356.76)" fill="#B0071D"/>
<rect x="513.204" y="1368.55" width="8" height="8" transform="rotate(-13.618 513.204 1368.55)" fill="#B0071D"/>
<rect x="458.779" y="1381.73" width="8" height="8" transform="rotate(-103.618 458.779 1381.73)" fill="#B0071D"/>
<rect x="470.562" y="1362.41" width="8" height="8" transform="rotate(-103.618 470.562 1362.41)" fill="#B0071D"/>
<rect x="452.887" y="1391.39" width="8" height="8" transform="rotate(-103.618 452.887 1391.39)" fill="#B0071D"/>
<rect x="464.67" y="1372.07" width="8" height="8" transform="rotate(-103.618 464.67 1372.07)" fill="#B0071D"/>
<rect x="482.345" y="1343.1" width="8" height="8" transform="rotate(-103.618 482.345 1343.1)" fill="#B0071D"/>
<rect x="494.128" y="1323.78" width="8" height="8" transform="rotate(-103.618 494.128 1323.78)" fill="#B0071D"/>
<rect x="488.236" y="1333.44" width="8" height="8" transform="rotate(-103.618 488.236 1333.44)" fill="#B0071D"/>
<rect x="500.019" y="1314.12" width="8" height="8" transform="rotate(-103.618 500.019 1314.12)" fill="#B0071D"/>
<rect x="474.57" y="1344.98" width="8" height="8" transform="rotate(-13.618 474.57 1344.98)" fill="#B0071D"/>
<rect x="420.484" y="1444.51" width="8" height="8" transform="rotate(-103.618 420.484 1444.51)" fill="#B0071D"/>
<rect x="426.375" y="1434.85" width="8" height="8" transform="rotate(-103.618 426.375 1434.85)" fill="#B0071D"/>
<rect x="83.3931" y="1106.37" width="8" height="8" transform="rotate(-13.618 83.3931 1106.37)" fill="#B0071D"/>
<rect x="102.71" y="1118.16" width="8" height="8" transform="rotate(-13.618 102.71 1118.16)" fill="#B0071D"/>
<rect x="73.7344" y="1100.48" width="8" height="8" transform="rotate(-13.618 73.7344 1100.48)" fill="#B0071D"/>
<rect x="93.0518" y="1112.27" width="8" height="8" transform="rotate(-13.618 93.0518 1112.27)" fill="#B0071D"/>
<rect x="122.028" y="1129.94" width="8" height="8" transform="rotate(-13.618 122.028 1129.94)" fill="#B0071D"/>
<rect x="141.345" y="1141.72" width="8" height="8" transform="rotate(-13.618 141.345 1141.72)" fill="#B0071D"/>
<rect x="131.687" y="1135.83" width="8" height="8" transform="rotate(-13.618 131.687 1135.83)" fill="#B0071D"/>
<rect x="151.004" y="1147.61" width="8" height="8" transform="rotate(-13.618 151.004 1147.61)" fill="#B0071D"/>
<rect x="96.5781" y="1160.8" width="8" height="8" transform="rotate(-103.618 96.5781 1160.8)" fill="#B0071D"/>
<rect x="108.361" y="1141.48" width="8" height="8" transform="rotate(-103.618 108.361 1141.48)" fill="#B0071D"/>
<rect x="90.6868" y="1170.46" width="8" height="8" transform="rotate(-103.618 90.6868 1170.46)" fill="#B0071D"/>
<rect x="102.47" y="1151.14" width="8" height="8" transform="rotate(-103.618 102.47 1151.14)" fill="#B0071D"/>
<rect x="120.144" y="1122.16" width="8" height="8" transform="rotate(-103.618 120.144 1122.16)" fill="#B0071D"/>
<rect x="131.927" y="1102.85" width="8" height="8" transform="rotate(-103.618 131.927 1102.85)" fill="#B0071D"/>
<rect x="126.036" y="1112.51" width="8" height="8" transform="rotate(-103.618 126.036 1112.51)" fill="#B0071D"/>
<rect x="137.819" y="1093.19" width="8" height="8" transform="rotate(-103.618 137.819 1093.19)" fill="#B0071D"/>
<rect x="112.369" y="1124.05" width="8" height="8" transform="rotate(-13.618 112.369 1124.05)" fill="#B0071D"/>
<rect x="204.126" y="1180.02" width="8" height="8" transform="rotate(-13.618 204.126 1180.02)" fill="#B0071D"/>
<rect x="223.444" y="1191.8" width="8" height="8" transform="rotate(-13.618 223.444 1191.8)" fill="#B0071D"/>
<rect x="194.468" y="1174.13" width="8" height="8" transform="rotate(-13.618 194.468 1174.13)" fill="#B0071D"/>
<rect x="213.785" y="1185.91" width="8" height="8" transform="rotate(-13.618 213.785 1185.91)" fill="#B0071D"/>
<rect x="242.761" y="1203.58" width="8" height="8" transform="rotate(-13.618 242.761 1203.58)" fill="#B0071D"/>
<rect x="262.079" y="1215.37" width="8" height="8" transform="rotate(-13.618 262.079 1215.37)" fill="#B0071D"/>
<rect x="252.42" y="1209.48" width="8" height="8" transform="rotate(-13.618 252.42 1209.48)" fill="#B0071D"/>
<rect x="271.737" y="1221.26" width="8" height="8" transform="rotate(-13.618 271.737 1221.26)" fill="#B0071D"/>
<rect x="217.312" y="1234.44" width="8" height="8" transform="rotate(-103.618 217.312 1234.44)" fill="#B0071D"/>
<rect x="229.095" y="1215.13" width="8" height="8" transform="rotate(-103.618 229.095 1215.13)" fill="#B0071D"/>
<rect x="211.42" y="1244.1" width="8" height="8" transform="rotate(-103.618 211.42 1244.1)" fill="#B0071D"/>
<rect x="223.203" y="1224.78" width="8" height="8" transform="rotate(-103.618 223.203 1224.78)" fill="#B0071D"/>
<rect x="240.878" y="1195.81" width="8" height="8" transform="rotate(-103.618 240.878 1195.81)" fill="#B0071D"/>
<rect x="252.661" y="1176.49" width="8" height="8" transform="rotate(-103.618 252.661 1176.49)" fill="#B0071D"/>
<rect x="246.769" y="1186.15" width="8" height="8" transform="rotate(-103.618 246.769 1186.15)" fill="#B0071D"/>
<rect x="258.552" y="1166.83" width="8" height="8" transform="rotate(-103.618 258.552 1166.83)" fill="#B0071D"/>
<rect x="233.103" y="1197.69" width="8" height="8" transform="rotate(-13.618 233.103 1197.69)" fill="#B0071D"/>
<rect x="130.483" y="1300.75" width="8" height="8" transform="rotate(-13.618 130.483 1300.75)" fill="#B0071D"/>
<rect x="149.8" y="1312.53" width="8" height="8" transform="rotate(-13.618 149.8 1312.53)" fill="#B0071D"/>
<rect x="120.824" y="1294.86" width="8" height="8" transform="rotate(-13.618 120.824 1294.86)" fill="#B0071D"/>
<rect x="140.141" y="1306.64" width="8" height="8" transform="rotate(-13.618 140.141 1306.64)" fill="#B0071D"/>
<rect x="169.117" y="1324.32" width="8" height="8" transform="rotate(-13.618 169.117 1324.32)" fill="#B0071D"/>
<rect x="188.435" y="1336.1" width="8" height="8" transform="rotate(-13.618 188.435 1336.1)" fill="#B0071D"/>
<rect x="178.776" y="1330.21" width="8" height="8" transform="rotate(-13.618 178.776 1330.21)" fill="#B0071D"/>
<rect x="198.094" y="1341.99" width="8" height="8" transform="rotate(-13.618 198.094 1341.99)" fill="#B0071D"/>
<rect x="143.668" y="1355.18" width="8" height="8" transform="rotate(-103.618 143.668 1355.18)" fill="#B0071D"/>
<rect x="155.451" y="1335.86" width="8" height="8" transform="rotate(-103.618 155.451 1335.86)" fill="#B0071D"/>
<rect x="137.776" y="1364.84" width="8" height="8" transform="rotate(-103.618 137.776 1364.84)" fill="#B0071D"/>
<rect x="149.559" y="1345.52" width="8" height="8" transform="rotate(-103.618 149.559 1345.52)" fill="#B0071D"/>
<rect x="167.234" y="1316.54" width="8" height="8" transform="rotate(-103.618 167.234 1316.54)" fill="#B0071D"/>
<rect x="179.017" y="1297.22" width="8" height="8" transform="rotate(-103.618 179.017 1297.22)" fill="#B0071D"/>
<rect x="173.125" y="1306.88" width="8" height="8" transform="rotate(-103.618 173.125 1306.88)" fill="#B0071D"/>
<rect x="184.908" y="1287.57" width="8" height="8" transform="rotate(-103.618 184.908 1287.57)" fill="#B0071D"/>
<rect x="159.459" y="1318.43" width="8" height="8" transform="rotate(-13.618 159.459 1318.43)" fill="#B0071D"/>
<rect x="251.216" y="1374.39" width="8" height="8" transform="rotate(-13.618 251.216 1374.39)" fill="#B0071D"/>
<rect x="270.533" y="1386.18" width="8" height="8" transform="rotate(-13.618 270.533 1386.18)" fill="#B0071D"/>
<rect x="241.557" y="1368.5" width="8" height="8" transform="rotate(-13.618 241.557 1368.5)" fill="#B0071D"/>
<rect x="260.875" y="1380.29" width="8" height="8" transform="rotate(-13.618 260.875 1380.29)" fill="#B0071D"/>
<rect x="289.851" y="1397.96" width="8" height="8" transform="rotate(-13.618 289.851 1397.96)" fill="#B0071D"/>
<rect x="309.168" y="1409.74" width="8" height="8" transform="rotate(-13.618 309.168 1409.74)" fill="#B0071D"/>
<rect x="299.51" y="1403.85" width="8" height="8" transform="rotate(-13.618 299.51 1403.85)" fill="#B0071D"/>
<rect x="318.827" y="1415.64" width="8" height="8" transform="rotate(-13.618 318.827 1415.64)" fill="#B0071D"/>
<rect x="264.401" y="1428.82" width="8" height="8" transform="rotate(-103.618 264.401 1428.82)" fill="#B0071D"/>
<rect x="276.184" y="1409.5" width="8" height="8" transform="rotate(-103.618 276.184 1409.5)" fill="#B0071D"/>
<rect x="258.51" y="1438.48" width="8" height="8" transform="rotate(-103.618 258.51 1438.48)" fill="#B0071D"/>
<rect x="270.293" y="1419.16" width="8" height="8" transform="rotate(-103.618 270.293 1419.16)" fill="#B0071D"/>
<rect x="287.967" y="1390.19" width="8" height="8" transform="rotate(-103.618 287.967 1390.19)" fill="#B0071D"/>
<rect x="299.75" y="1370.87" width="8" height="8" transform="rotate(-103.618 299.75 1370.87)" fill="#B0071D"/>
<rect x="293.859" y="1380.53" width="8" height="8" transform="rotate(-103.618 293.859 1380.53)" fill="#B0071D"/>
<rect x="305.642" y="1361.21" width="8" height="8" transform="rotate(-103.618 305.642 1361.21)" fill="#B0071D"/>
<rect x="280.192" y="1392.07" width="8" height="8" transform="rotate(-13.618 280.192 1392.07)" fill="#B0071D"/>
<rect x="472.148" y="1012.19" width="8" height="8" transform="rotate(-13.618 472.148 1012.19)" fill="#B0071D"/>
<rect x="491.465" y="1023.98" width="8" height="8" transform="rotate(-13.618 491.465 1023.98)" fill="#B0071D"/>
<rect x="462.489" y="1006.3" width="8" height="8" transform="rotate(-13.618 462.489 1006.3)" fill="#B0071D"/>
<rect x="481.807" y="1018.09" width="8" height="8" transform="rotate(-13.618 481.807 1018.09)" fill="#B0071D"/>
<rect x="510.783" y="1035.76" width="8" height="8" transform="rotate(-13.618 510.783 1035.76)" fill="#B0071D"/>
<rect x="530.1" y="1047.54" width="8" height="8" transform="rotate(-13.618 530.1 1047.54)" fill="#B0071D"/>
<rect x="520.441" y="1041.65" width="8" height="8" transform="rotate(-13.618 520.441 1041.65)" fill="#B0071D"/>
<rect x="539.758" y="1053.43" width="8" height="8" transform="rotate(-13.618 539.758 1053.43)" fill="#B0071D"/>
<rect x="485.333" y="1066.62" width="8" height="8" transform="rotate(-103.618 485.333 1066.62)" fill="#B0071D"/>
<rect x="497.116" y="1047.3" width="8" height="8" transform="rotate(-103.618 497.116 1047.3)" fill="#B0071D"/>
<rect x="479.441" y="1076.28" width="8" height="8" transform="rotate(-103.618 479.441 1076.28)" fill="#B0071D"/>
<rect x="491.225" y="1056.96" width="8" height="8" transform="rotate(-103.618 491.225 1056.96)" fill="#B0071D"/>
<rect x="508.899" y="1027.99" width="8" height="8" transform="rotate(-103.618 508.899 1027.99)" fill="#B0071D"/>
<rect x="520.682" y="1008.67" width="8" height="8" transform="rotate(-103.618 520.682 1008.67)" fill="#B0071D"/>
<rect x="514.791" y="1018.33" width="8" height="8" transform="rotate(-103.618 514.791 1018.33)" fill="#B0071D"/>
<rect x="526.573" y="999.009" width="8" height="8" transform="rotate(-103.618 526.573 999.009)" fill="#B0071D"/>
<rect x="501.124" y="1029.87" width="8" height="8" transform="rotate(-13.618 501.124 1029.87)" fill="#B0071D"/>
<rect x="592.882" y="1085.84" width="8" height="8" transform="rotate(-13.618 592.882 1085.84)" fill="#B0071D"/>
<rect x="612.199" y="1097.62" width="8" height="8" transform="rotate(-13.618 612.199 1097.62)" fill="#B0071D"/>
<rect x="583.223" y="1079.95" width="8" height="8" transform="rotate(-13.618 583.223 1079.95)" fill="#B0071D"/>
<rect x="602.541" y="1091.73" width="8" height="8" transform="rotate(-13.618 602.541 1091.73)" fill="#B0071D"/>
<rect x="631.517" y="1109.4" width="8" height="8" transform="rotate(-13.618 631.517 1109.4)" fill="#B0071D"/>
<rect x="650.834" y="1121.19" width="8" height="8" transform="rotate(-13.618 650.834 1121.19)" fill="#B0071D"/>
<rect x="641.175" y="1115.3" width="8" height="8" transform="rotate(-13.618 641.175 1115.3)" fill="#B0071D"/>
<rect x="660.492" y="1127.08" width="8" height="8" transform="rotate(-13.618 660.492 1127.08)" fill="#B0071D"/>
<rect x="606.067" y="1140.26" width="8" height="8" transform="rotate(-103.618 606.067 1140.26)" fill="#B0071D"/>
<rect x="617.85" y="1120.95" width="8" height="8" transform="rotate(-103.618 617.85 1120.95)" fill="#B0071D"/>
<rect x="600.175" y="1149.92" width="8" height="8" transform="rotate(-103.618 600.175 1149.92)" fill="#B0071D"/>
<rect x="611.958" y="1130.61" width="8" height="8" transform="rotate(-103.618 611.958 1130.61)" fill="#B0071D"/>
<rect x="629.633" y="1101.63" width="8" height="8" transform="rotate(-103.618 629.633 1101.63)" fill="#B0071D"/>
<rect x="641.416" y="1082.31" width="8" height="8" transform="rotate(-103.618 641.416 1082.31)" fill="#B0071D"/>
<rect x="635.524" y="1091.97" width="8" height="8" transform="rotate(-103.618 635.524 1091.97)" fill="#B0071D"/>
<rect x="647.307" y="1072.65" width="8" height="8" transform="rotate(-103.618 647.307 1072.65)" fill="#B0071D"/>
<rect x="621.858" y="1103.51" width="8" height="8" transform="rotate(-13.618 621.858 1103.51)" fill="#B0071D"/>
<rect x="519.238" y="1206.57" width="8" height="8" transform="rotate(-13.618 519.238 1206.57)" fill="#B0071D"/>
<rect x="538.555" y="1218.35" width="8" height="8" transform="rotate(-13.618 538.555 1218.35)" fill="#B0071D"/>
<rect x="509.579" y="1200.68" width="8" height="8" transform="rotate(-13.618 509.579 1200.68)" fill="#B0071D"/>
<rect x="528.896" y="1212.46" width="8" height="8" transform="rotate(-13.618 528.896 1212.46)" fill="#B0071D"/>
<rect x="557.873" y="1230.14" width="8" height="8" transform="rotate(-13.618 557.873 1230.14)" fill="#B0071D"/>
<rect x="577.19" y="1241.92" width="8" height="8" transform="rotate(-13.618 577.19 1241.92)" fill="#B0071D"/>
<rect x="567.531" y="1236.03" width="8" height="8" transform="rotate(-13.618 567.531 1236.03)" fill="#B0071D"/>
<rect x="586.848" y="1247.81" width="8" height="8" transform="rotate(-13.618 586.848 1247.81)" fill="#B0071D"/>
<rect x="532.423" y="1261" width="8" height="8" transform="rotate(-103.618 532.423 1261)" fill="#B0071D"/>
<rect x="544.206" y="1241.68" width="8" height="8" transform="rotate(-103.618 544.206 1241.68)" fill="#B0071D"/>
<rect x="526.531" y="1270.66" width="8" height="8" transform="rotate(-103.618 526.531 1270.66)" fill="#B0071D"/>
<rect x="538.314" y="1251.34" width="8" height="8" transform="rotate(-103.618 538.314 1251.34)" fill="#B0071D"/>
<rect x="555.989" y="1222.36" width="8" height="8" transform="rotate(-103.618 555.989 1222.36)" fill="#B0071D"/>
<rect x="567.772" y="1203.05" width="8" height="8" transform="rotate(-103.618 567.772 1203.05)" fill="#B0071D"/>
<rect x="561.88" y="1212.7" width="8" height="8" transform="rotate(-103.618 561.88 1212.7)" fill="#B0071D"/>
<rect x="573.663" y="1193.39" width="8" height="8" transform="rotate(-103.618 573.663 1193.39)" fill="#B0071D"/>
<rect x="548.214" y="1224.25" width="8" height="8" transform="rotate(-13.618 548.214 1224.25)" fill="#B0071D"/>
<rect x="639.971" y="1280.22" width="8" height="8" transform="rotate(-13.618 639.971 1280.22)" fill="#B0071D"/>
<rect x="659.289" y="1292" width="8" height="8" transform="rotate(-13.618 659.289 1292)" fill="#B0071D"/>
<rect x="630.312" y="1274.32" width="8" height="8" transform="rotate(-13.618 630.312 1274.32)" fill="#B0071D"/>
<rect x="649.63" y="1286.11" width="8" height="8" transform="rotate(-13.618 649.63 1286.11)" fill="#B0071D"/>
<rect x="678.606" y="1303.78" width="8" height="8" transform="rotate(-13.618 678.606 1303.78)" fill="#B0071D"/>
<rect x="697.923" y="1315.56" width="8" height="8" transform="rotate(-13.618 697.923 1315.56)" fill="#B0071D"/>
<rect x="688.265" y="1309.67" width="8" height="8" transform="rotate(-13.618 688.265 1309.67)" fill="#B0071D"/>
<rect x="707.582" y="1321.46" width="8" height="8" transform="rotate(-13.618 707.582 1321.46)" fill="#B0071D"/>
<rect x="653.156" y="1334.64" width="8" height="8" transform="rotate(-103.618 653.156 1334.64)" fill="#B0071D"/>
<rect x="664.939" y="1315.32" width="8" height="8" transform="rotate(-103.618 664.939 1315.32)" fill="#B0071D"/>
<rect x="647.265" y="1344.3" width="8" height="8" transform="rotate(-103.618 647.265 1344.3)" fill="#B0071D"/>
<rect x="659.048" y="1324.98" width="8" height="8" transform="rotate(-103.618 659.048 1324.98)" fill="#B0071D"/>
<rect x="676.722" y="1296.01" width="8" height="8" transform="rotate(-103.618 676.722 1296.01)" fill="#B0071D"/>
<rect x="688.505" y="1276.69" width="8" height="8" transform="rotate(-103.618 688.505 1276.69)" fill="#B0071D"/>
<rect x="682.614" y="1286.35" width="8" height="8" transform="rotate(-103.618 682.614 1286.35)" fill="#B0071D"/>
<rect x="694.396" y="1267.03" width="8" height="8" transform="rotate(-103.618 694.396 1267.03)" fill="#B0071D"/>
<rect x="668.947" y="1297.89" width="8" height="8" transform="rotate(-13.618 668.947 1297.89)" fill="#B0071D"/>
<rect x="566.327" y="1400.95" width="8" height="8" transform="rotate(-13.618 566.327 1400.95)" fill="#B0071D"/>
<rect x="585.645" y="1412.73" width="8" height="8" transform="rotate(-13.618 585.645 1412.73)" fill="#B0071D"/>
<rect x="556.668" y="1395.06" width="8" height="8" transform="rotate(-13.618 556.668 1395.06)" fill="#B0071D"/>
<rect x="575.986" y="1406.84" width="8" height="8" transform="rotate(-13.618 575.986 1406.84)" fill="#B0071D"/>
<rect x="604.962" y="1424.52" width="8" height="8" transform="rotate(-13.618 604.962 1424.52)" fill="#B0071D"/>
<rect x="624.279" y="1436.3" width="8" height="8" transform="rotate(-13.618 624.279 1436.3)" fill="#B0071D"/>
<rect x="614.621" y="1430.41" width="8" height="8" transform="rotate(-13.618 614.621 1430.41)" fill="#B0071D"/>
<rect x="591.295" y="1436.06" width="8" height="8" transform="rotate(-103.618 591.295 1436.06)" fill="#B0071D"/>
<rect x="585.404" y="1445.72" width="8" height="8" transform="rotate(-103.618 585.404 1445.72)" fill="#B0071D"/>
<rect x="603.078" y="1416.74" width="8" height="8" transform="rotate(-103.618 603.078 1416.74)" fill="#B0071D"/>
<rect x="614.861" y="1397.42" width="8" height="8" transform="rotate(-103.618 614.861 1397.42)" fill="#B0071D"/>
<rect x="608.97" y="1407.08" width="8" height="8" transform="rotate(-103.618 608.97 1407.08)" fill="#B0071D"/>
<rect x="620.752" y="1387.76" width="8" height="8" transform="rotate(-103.618 620.752 1387.76)" fill="#B0071D"/>
<rect x="595.303" y="1418.62" width="8" height="8" transform="rotate(-13.618 595.303 1418.62)" fill="#B0071D"/>
<rect x="651.328" y="968.804" width="8" height="8" transform="rotate(-13.618 651.328 968.804)" fill="#B0071D"/>
<rect x="670.646" y="980.587" width="8" height="8" transform="rotate(-13.618 670.646 980.587)" fill="#B0071D"/>
<rect x="641.669" y="962.913" width="8" height="8" transform="rotate(-13.618 641.669 962.913)" fill="#B0071D"/>
<rect x="660.987" y="974.696" width="8" height="8" transform="rotate(-13.618 660.987 974.696)" fill="#B0071D"/>
<rect x="689.963" y="992.37" width="8" height="8" transform="rotate(-13.618 689.963 992.37)" fill="#B0071D"/>
<rect x="709.28" y="1004.15" width="8" height="8" transform="rotate(-13.618 709.28 1004.15)" fill="#B0071D"/>
<rect x="699.622" y="998.262" width="8" height="8" transform="rotate(-13.618 699.622 998.262)" fill="#B0071D"/>
<rect x="718.938" y="1010.05" width="8" height="8" transform="rotate(-13.618 718.938 1010.05)" fill="#B0071D"/>
<rect x="664.513" y="1023.23" width="8" height="8" transform="rotate(-103.618 664.513 1023.23)" fill="#B0071D"/>
<rect x="676.296" y="1003.91" width="8" height="8" transform="rotate(-103.618 676.296 1003.91)" fill="#B0071D"/>
<rect x="658.622" y="1032.89" width="8" height="8" transform="rotate(-103.618 658.622 1032.89)" fill="#B0071D"/>
<rect x="670.405" y="1013.57" width="8" height="8" transform="rotate(-103.618 670.405 1013.57)" fill="#B0071D"/>
<rect x="688.079" y="984.595" width="8" height="8" transform="rotate(-103.618 688.079 984.595)" fill="#B0071D"/>
<rect x="699.862" y="965.278" width="8" height="8" transform="rotate(-103.618 699.862 965.278)" fill="#B0071D"/>
<rect x="693.971" y="974.937" width="8" height="8" transform="rotate(-103.618 693.971 974.937)" fill="#B0071D"/>
<rect x="705.753" y="955.619" width="8" height="8" transform="rotate(-103.618 705.753 955.619)" fill="#B0071D"/>
<rect x="680.304" y="986.479" width="8" height="8" transform="rotate(-13.618 680.304 986.479)" fill="#B0071D"/>
<rect x="698.418" y="1163.18" width="8" height="8" transform="rotate(-13.618 698.418 1163.18)" fill="#B0071D"/>
<rect x="717.735" y="1174.96" width="8" height="8" transform="rotate(-13.618 717.735 1174.96)" fill="#B0071D"/>
<rect x="688.759" y="1157.29" width="8" height="8" transform="rotate(-13.618 688.759 1157.29)" fill="#B0071D"/>
<rect x="708.077" y="1169.07" width="8" height="8" transform="rotate(-13.618 708.077 1169.07)" fill="#B0071D"/>
<rect x="737.053" y="1186.75" width="8" height="8" transform="rotate(-13.618 737.053 1186.75)" fill="#B0071D"/>
<rect x="756.37" y="1198.53" width="8" height="8" transform="rotate(-13.618 756.37 1198.53)" fill="#B0071D"/>
<rect x="746.711" y="1192.64" width="8" height="8" transform="rotate(-13.618 746.711 1192.64)" fill="#B0071D"/>
<rect x="766.028" y="1204.42" width="8" height="8" transform="rotate(-13.618 766.028 1204.42)" fill="#B0071D"/>
<rect x="711.603" y="1217.61" width="8" height="8" transform="rotate(-103.618 711.603 1217.61)" fill="#B0071D"/>
<rect x="723.386" y="1198.29" width="8" height="8" transform="rotate(-103.618 723.386 1198.29)" fill="#B0071D"/>
<rect x="705.711" y="1227.27" width="8" height="8" transform="rotate(-103.618 705.711 1227.27)" fill="#B0071D"/>
<rect x="717.495" y="1207.95" width="8" height="8" transform="rotate(-103.618 717.495 1207.95)" fill="#B0071D"/>
<rect x="735.169" y="1178.97" width="8" height="8" transform="rotate(-103.618 735.169 1178.97)" fill="#B0071D"/>
<rect x="746.952" y="1159.66" width="8" height="8" transform="rotate(-103.618 746.952 1159.66)" fill="#B0071D"/>
<rect x="741.061" y="1169.31" width="8" height="8" transform="rotate(-103.618 741.061 1169.31)" fill="#B0071D"/>
<rect x="752.843" y="1150" width="8" height="8" transform="rotate(-103.618 752.843 1150)" fill="#B0071D"/>
<rect x="727.394" y="1180.86" width="8" height="8" transform="rotate(-13.618 727.394 1180.86)" fill="#B0071D"/>
<rect x="745.507" y="1357.56" width="8" height="8" transform="rotate(-13.618 745.507 1357.56)" fill="#B0071D"/>
<rect x="764.825" y="1369.34" width="8" height="8" transform="rotate(-13.618 764.825 1369.34)" fill="#B0071D"/>
<rect x="735.849" y="1351.67" width="8" height="8" transform="rotate(-13.618 735.849 1351.67)" fill="#B0071D"/>
<rect x="755.166" y="1363.45" width="8" height="8" transform="rotate(-13.618 755.166 1363.45)" fill="#B0071D"/>
<rect x="784.142" y="1381.13" width="8" height="8" transform="rotate(-13.618 784.142 1381.13)" fill="#B0071D"/>
<rect x="803.459" y="1392.91" width="8" height="8" transform="rotate(-13.618 803.459 1392.91)" fill="#B0071D"/>
<rect x="793.801" y="1387.02" width="8" height="8" transform="rotate(-13.618 793.801 1387.02)" fill="#B0071D"/>
<rect x="813.118" y="1398.8" width="8" height="8" transform="rotate(-13.618 813.118 1398.8)" fill="#B0071D"/>
<rect x="758.692" y="1411.98" width="8" height="8" transform="rotate(-103.618 758.692 1411.98)" fill="#B0071D"/>
<rect x="770.475" y="1392.67" width="8" height="8" transform="rotate(-103.618 770.475 1392.67)" fill="#B0071D"/>
<rect x="752.801" y="1421.64" width="8" height="8" transform="rotate(-103.618 752.801 1421.64)" fill="#B0071D"/>
<rect x="764.584" y="1402.33" width="8" height="8" transform="rotate(-103.618 764.584 1402.33)" fill="#B0071D"/>
<rect x="782.258" y="1373.35" width="8" height="8" transform="rotate(-103.618 782.258 1373.35)" fill="#B0071D"/>
<rect x="794.042" y="1354.03" width="8" height="8" transform="rotate(-103.618 794.042 1354.03)" fill="#B0071D"/>
<rect x="788.15" y="1363.69" width="8" height="8" transform="rotate(-103.618 788.15 1363.69)" fill="#B0071D"/>
<rect x="799.933" y="1344.37" width="8" height="8" transform="rotate(-103.618 799.933 1344.37)" fill="#B0071D"/>
<rect x="774.483" y="1375.23" width="8" height="8" transform="rotate(-13.618 774.483 1375.23)" fill="#B0071D"/>
<circle cx="1828.65" cy="43.7851" r="23" transform="rotate(13.9475 1828.65 43.7851)" stroke="#BE0E25" stroke-width="2"/>
<circle cx="1696.09" cy="162.656" r="23" transform="rotate(13.9475 1696.09 162.656)" stroke="#BE0E25" stroke-width="2"/>
<circle cx="1769.03" cy="283.811" r="23" transform="rotate(13.9475 1769.03 283.811)" stroke="#BE0E25" stroke-width="2"/>
<circle cx="2235.75" cy="41.8536" r="23" transform="rotate(13.9475 2235.75 41.8536)" stroke="#BE0E25" stroke-width="2"/>
<circle cx="2308.7" cy="163.009" r="23" transform="rotate(13.9475 2308.7 163.009)" stroke="#BE0E25" stroke-width="2"/>
<circle cx="2176.14" cy="281.88" r="23" transform="rotate(13.9475 2176.14 281.88)" stroke="#BE0E25" stroke-width="2"/>
<circle cx="2249.09" cy="403.035" r="23" transform="rotate(13.9475 2249.09 403.035)" stroke="#BE0E25" stroke-width="2"/>
<circle cx="1995.72" cy="-17.7581" r="23" transform="rotate(13.9475 1995.72 -17.7581)" stroke="#BE0E25" stroke-width="2"/>
<circle cx="2068.67" cy="103.397" r="23" transform="rotate(13.9475 2068.67 103.397)" stroke="#BE0E25" stroke-width="2"/>
<circle cx="1936.11" cy="222.268" r="23" transform="rotate(13.9475 1936.11 222.268)" stroke="#BE0E25" stroke-width="2"/>
<circle cx="2009.06" cy="343.423" r="23" transform="rotate(13.9475 2009.06 343.423)" stroke="#BE0E25" stroke-width="2"/>
<circle cx="2475.78" cy="101.465" r="23" transform="rotate(13.9475 2475.78 101.465)" stroke="#BE0E25" stroke-width="2"/>
<circle cx="2548.72" cy="222.62" r="23" transform="rotate(13.9475 2548.72 222.62)" stroke="#BE0E25" stroke-width="2"/>
<circle cx="2416.17" cy="341.491" r="23" transform="rotate(13.9475 2416.17 341.491)" stroke="#BE0E25" stroke-width="2"/>
<circle cx="2489.11" cy="462.646" r="23" transform="rotate(13.9475 2489.11 462.646)" stroke="#BE0E25" stroke-width="2"/>
</g>
<defs>
<clipPath id="clip0_214_1692">
<rect width="2560" height="1440" fill="white"/>
</clipPath>
</defs>
</svg>
