<svg width="1440" height="1024" viewBox="0 0 1440 1024" fill="none" xmlns="http://www.w3.org/2000/svg">
<g clip-path="url(#clip0_218_2)">
<rect width="1440" height="1024" fill="#810515"/>
<rect x="82.6106" y="783.66" width="8" height="8" transform="rotate(-90.345 82.6106 783.66)" fill="#B0071D"/>
<rect x="98.5139" y="767.564" width="8" height="8" transform="rotate(-90.345 98.5139 767.564)" fill="#B0071D"/>
<rect x="74.6589" y="791.708" width="8" height="8" transform="rotate(-90.345 74.6589 791.708)" fill="#B0071D"/>
<rect x="90.5623" y="775.612" width="8" height="8" transform="rotate(-90.345 90.5623 775.612)" fill="#B0071D"/>
<rect x="114.417" y="751.468" width="8" height="8" transform="rotate(-90.345 114.417 751.468)" fill="#B0071D"/>
<rect x="130.321" y="735.372" width="8" height="8" transform="rotate(-90.345 130.321 735.372)" fill="#B0071D"/>
<rect x="122.369" y="743.42" width="8" height="8" transform="rotate(-90.345 122.369 743.42)" fill="#B0071D"/>
<rect x="138.272" y="727.324" width="8" height="8" transform="rotate(-90.345 138.272 727.324)" fill="#B0071D"/>
<rect x="138.61" y="783.323" width="8" height="8" transform="rotate(179.655 138.61 783.323)" fill="#B0071D"/>
<rect x="122.513" y="767.42" width="8" height="8" transform="rotate(179.655 122.513 767.42)" fill="#B0071D"/>
<rect x="146.658" y="791.275" width="8" height="8" transform="rotate(179.655 146.658 791.275)" fill="#B0071D"/>
<rect x="130.562" y="775.371" width="8" height="8" transform="rotate(179.655 130.562 775.371)" fill="#B0071D"/>
<rect x="106.417" y="751.516" width="8" height="8" transform="rotate(179.655 106.417 751.516)" fill="#B0071D"/>
<rect x="90.3214" y="735.613" width="8" height="8" transform="rotate(179.655 90.3214 735.613)" fill="#B0071D"/>
<rect x="98.3694" y="743.565" width="8" height="8" transform="rotate(179.655 98.3694 743.565)" fill="#B0071D"/>
<rect x="82.2734" y="727.661" width="8" height="8" transform="rotate(179.655 82.2734 727.661)" fill="#B0071D"/>
<rect x="106.466" y="759.516" width="8" height="8" transform="rotate(-90.345 106.466 759.516)" fill="#B0071D"/>
<rect x="255.668" y="608.505" width="8" height="8" transform="rotate(-90.345 255.668 608.505)" fill="#B0071D"/>
<rect x="271.571" y="592.409" width="8" height="8" transform="rotate(-90.345 271.571 592.409)" fill="#B0071D"/>
<rect x="247.716" y="616.553" width="8" height="8" transform="rotate(-90.345 247.716 616.553)" fill="#B0071D"/>
<rect x="263.62" y="600.457" width="8" height="8" transform="rotate(-90.345 263.62 600.457)" fill="#B0071D"/>
<rect x="287.475" y="576.313" width="8" height="8" transform="rotate(-90.345 287.475 576.313)" fill="#B0071D"/>
<rect x="303.378" y="560.217" width="8" height="8" transform="rotate(-90.345 303.378 560.217)" fill="#B0071D"/>
<rect x="295.426" y="568.265" width="8" height="8" transform="rotate(-90.345 295.426 568.265)" fill="#B0071D"/>
<rect x="311.33" y="552.169" width="8" height="8" transform="rotate(-90.345 311.33 552.169)" fill="#B0071D"/>
<rect x="311.667" y="608.168" width="8" height="8" transform="rotate(179.655 311.667 608.168)" fill="#B0071D"/>
<rect x="295.571" y="592.265" width="8" height="8" transform="rotate(179.655 295.571 592.265)" fill="#B0071D"/>
<rect x="319.715" y="616.12" width="8" height="8" transform="rotate(179.655 319.715 616.12)" fill="#B0071D"/>
<rect x="303.619" y="600.217" width="8" height="8" transform="rotate(179.655 303.619 600.217)" fill="#B0071D"/>
<rect x="279.475" y="576.362" width="8" height="8" transform="rotate(179.655 279.475 576.362)" fill="#B0071D"/>
<rect x="263.379" y="560.458" width="8" height="8" transform="rotate(179.655 263.379 560.458)" fill="#B0071D"/>
<rect x="271.427" y="568.41" width="8" height="8" transform="rotate(179.655 271.427 568.41)" fill="#B0071D"/>
<rect x="255.331" y="552.506" width="8" height="8" transform="rotate(179.655 255.331 552.506)" fill="#B0071D"/>
<rect x="279.523" y="584.361" width="8" height="8" transform="rotate(-90.345 279.523 584.361)" fill="#B0071D"/>
<rect x="430.822" y="781.563" width="8" height="8" transform="rotate(-90.345 430.822 781.563)" fill="#B0071D"/>
<rect x="446.726" y="765.467" width="8" height="8" transform="rotate(-90.345 446.726 765.467)" fill="#B0071D"/>
<rect x="422.871" y="789.611" width="8" height="8" transform="rotate(-90.345 422.871 789.611)" fill="#B0071D"/>
<rect x="438.774" y="773.515" width="8" height="8" transform="rotate(-90.345 438.774 773.515)" fill="#B0071D"/>
<rect x="462.629" y="749.371" width="8" height="8" transform="rotate(-90.345 462.629 749.371)" fill="#B0071D"/>
<rect x="478.532" y="733.275" width="8" height="8" transform="rotate(-90.345 478.532 733.275)" fill="#B0071D"/>
<rect x="470.581" y="741.323" width="8" height="8" transform="rotate(-90.345 470.581 741.323)" fill="#B0071D"/>
<rect x="486.484" y="725.227" width="8" height="8" transform="rotate(-90.345 486.484 725.227)" fill="#B0071D"/>
<rect x="486.821" y="781.226" width="8" height="8" transform="rotate(179.655 486.821 781.226)" fill="#B0071D"/>
<rect x="470.725" y="765.323" width="8" height="8" transform="rotate(179.655 470.725 765.323)" fill="#B0071D"/>
<rect x="494.869" y="789.178" width="8" height="8" transform="rotate(179.655 494.869 789.178)" fill="#B0071D"/>
<rect x="478.773" y="773.274" width="8" height="8" transform="rotate(179.655 478.773 773.274)" fill="#B0071D"/>
<rect x="454.629" y="749.419" width="8" height="8" transform="rotate(179.655 454.629 749.419)" fill="#B0071D"/>
<rect x="438.533" y="733.516" width="8" height="8" transform="rotate(179.655 438.533 733.516)" fill="#B0071D"/>
<rect x="446.581" y="741.468" width="8" height="8" transform="rotate(179.655 446.581 741.468)" fill="#B0071D"/>
<rect x="430.485" y="725.564" width="8" height="8" transform="rotate(179.655 430.485 725.564)" fill="#B0071D"/>
<rect x="454.677" y="757.419" width="8" height="8" transform="rotate(-90.345 454.677 757.419)" fill="#B0071D"/>
<rect x="603.88" y="606.409" width="8" height="8" transform="rotate(-90.345 603.88 606.409)" fill="#B0071D"/>
<rect x="619.783" y="590.312" width="8" height="8" transform="rotate(-90.345 619.783 590.312)" fill="#B0071D"/>
<rect x="595.928" y="614.457" width="8" height="8" transform="rotate(-90.345 595.928 614.457)" fill="#B0071D"/>
<rect x="611.831" y="598.36" width="8" height="8" transform="rotate(-90.345 611.831 598.36)" fill="#B0071D"/>
<rect x="635.686" y="574.216" width="8" height="8" transform="rotate(-90.345 635.686 574.216)" fill="#B0071D"/>
<rect x="651.59" y="558.12" width="8" height="8" transform="rotate(-90.345 651.59 558.12)" fill="#B0071D"/>
<rect x="643.638" y="566.168" width="8" height="8" transform="rotate(-90.345 643.638 566.168)" fill="#B0071D"/>
<rect x="659.542" y="550.072" width="8" height="8" transform="rotate(-90.345 659.542 550.072)" fill="#B0071D"/>
<rect x="659.879" y="606.071" width="8" height="8" transform="rotate(179.655 659.879 606.071)" fill="#B0071D"/>
<rect x="643.783" y="590.168" width="8" height="8" transform="rotate(179.655 643.783 590.168)" fill="#B0071D"/>
<rect x="667.927" y="614.023" width="8" height="8" transform="rotate(179.655 667.927 614.023)" fill="#B0071D"/>
<rect x="651.831" y="598.12" width="8" height="8" transform="rotate(179.655 651.831 598.12)" fill="#B0071D"/>
<rect x="627.687" y="574.265" width="8" height="8" transform="rotate(179.655 627.687 574.265)" fill="#B0071D"/>
<rect x="611.59" y="558.361" width="8" height="8" transform="rotate(179.655 611.59 558.361)" fill="#B0071D"/>
<rect x="619.639" y="566.313" width="8" height="8" transform="rotate(179.655 619.639 566.313)" fill="#B0071D"/>
<rect x="603.542" y="550.41" width="8" height="8" transform="rotate(179.655 603.542 550.41)" fill="#B0071D"/>
<rect x="627.735" y="582.265" width="8" height="8" transform="rotate(-90.345 627.735 582.265)" fill="#B0071D"/>
<rect x="779.034" y="779.466" width="8" height="8" transform="rotate(-90.345 779.034 779.466)" fill="#B0071D"/>
<rect x="794.937" y="763.37" width="8" height="8" transform="rotate(-90.345 794.937 763.37)" fill="#B0071D"/>
<rect x="771.082" y="787.514" width="8" height="8" transform="rotate(-90.345 771.082 787.514)" fill="#B0071D"/>
<rect x="786.986" y="771.418" width="8" height="8" transform="rotate(-90.345 786.986 771.418)" fill="#B0071D"/>
<rect x="810.841" y="747.274" width="8" height="8" transform="rotate(-90.345 810.841 747.274)" fill="#B0071D"/>
<rect x="826.744" y="731.178" width="8" height="8" transform="rotate(-90.345 826.744 731.178)" fill="#B0071D"/>
<rect x="818.792" y="739.226" width="8" height="8" transform="rotate(-90.345 818.792 739.226)" fill="#B0071D"/>
<rect x="834.696" y="723.13" width="8" height="8" transform="rotate(-90.345 834.696 723.13)" fill="#B0071D"/>
<rect x="835.033" y="779.129" width="8" height="8" transform="rotate(179.655 835.033 779.129)" fill="#B0071D"/>
<rect x="818.937" y="763.226" width="8" height="8" transform="rotate(179.655 818.937 763.226)" fill="#B0071D"/>
<rect x="843.081" y="787.081" width="8" height="8" transform="rotate(179.655 843.081 787.081)" fill="#B0071D"/>
<rect x="826.985" y="771.177" width="8" height="8" transform="rotate(179.655 826.985 771.177)" fill="#B0071D"/>
<rect x="802.841" y="747.323" width="8" height="8" transform="rotate(179.655 802.841 747.323)" fill="#B0071D"/>
<rect x="786.745" y="731.419" width="8" height="8" transform="rotate(179.655 786.745 731.419)" fill="#B0071D"/>
<rect x="794.793" y="739.371" width="8" height="8" transform="rotate(179.655 794.793 739.371)" fill="#B0071D"/>
<rect x="778.697" y="723.467" width="8" height="8" transform="rotate(179.655 778.697 723.467)" fill="#B0071D"/>
<rect x="802.889" y="755.322" width="8" height="8" transform="rotate(-90.345 802.889 755.322)" fill="#B0071D"/>
<rect x="952.091" y="604.312" width="8" height="8" transform="rotate(-90.345 952.091 604.312)" fill="#B0071D"/>
<rect x="967.995" y="588.216" width="8" height="8" transform="rotate(-90.345 967.995 588.216)" fill="#B0071D"/>
<rect x="944.139" y="612.36" width="8" height="8" transform="rotate(-90.345 944.139 612.36)" fill="#B0071D"/>
<rect x="960.043" y="596.264" width="8" height="8" transform="rotate(-90.345 960.043 596.264)" fill="#B0071D"/>
<rect x="983.898" y="572.12" width="8" height="8" transform="rotate(-90.345 983.898 572.12)" fill="#B0071D"/>
<rect x="999.801" y="556.024" width="8" height="8" transform="rotate(-90.345 999.801 556.024)" fill="#B0071D"/>
<rect x="991.849" y="564.072" width="8" height="8" transform="rotate(-90.345 991.849 564.072)" fill="#B0071D"/>
<rect x="1007.75" y="547.976" width="8" height="8" transform="rotate(-90.345 1007.75 547.976)" fill="#B0071D"/>
<rect x="1008.09" y="603.975" width="8" height="8" transform="rotate(179.655 1008.09 603.975)" fill="#B0071D"/>
<rect x="991.994" y="588.071" width="8" height="8" transform="rotate(179.655 991.994 588.071)" fill="#B0071D"/>
<rect x="1016.14" y="611.926" width="8" height="8" transform="rotate(179.655 1016.14 611.926)" fill="#B0071D"/>
<rect x="1000.04" y="596.023" width="8" height="8" transform="rotate(179.655 1000.04 596.023)" fill="#B0071D"/>
<rect x="975.898" y="572.168" width="8" height="8" transform="rotate(179.655 975.898 572.168)" fill="#B0071D"/>
<rect x="959.802" y="556.265" width="8" height="8" transform="rotate(179.655 959.802 556.265)" fill="#B0071D"/>
<rect x="967.85" y="564.216" width="8" height="8" transform="rotate(179.655 967.85 564.216)" fill="#B0071D"/>
<rect x="951.754" y="548.313" width="8" height="8" transform="rotate(179.655 951.754 548.313)" fill="#B0071D"/>
<rect x="975.946" y="580.168" width="8" height="8" transform="rotate(-90.345 975.946 580.168)" fill="#B0071D"/>
<rect x="1127.25" y="777.369" width="8" height="8" transform="rotate(-90.345 1127.25 777.369)" fill="#B0071D"/>
<rect x="1143.15" y="761.273" width="8" height="8" transform="rotate(-90.345 1143.15 761.273)" fill="#B0071D"/>
<rect x="1119.29" y="785.417" width="8" height="8" transform="rotate(-90.345 1119.29 785.417)" fill="#B0071D"/>
<rect x="1135.2" y="769.321" width="8" height="8" transform="rotate(-90.345 1135.2 769.321)" fill="#B0071D"/>
<rect x="1159.05" y="745.177" width="8" height="8" transform="rotate(-90.345 1159.05 745.177)" fill="#B0071D"/>
<rect x="1174.96" y="729.081" width="8" height="8" transform="rotate(-90.345 1174.96 729.081)" fill="#B0071D"/>
<rect x="1167" y="737.129" width="8" height="8" transform="rotate(-90.345 1167 737.129)" fill="#B0071D"/>
<rect x="1182.91" y="721.033" width="8" height="8" transform="rotate(-90.345 1182.91 721.033)" fill="#B0071D"/>
<rect x="1183.24" y="777.032" width="8" height="8" transform="rotate(179.655 1183.24 777.032)" fill="#B0071D"/>
<rect x="1167.15" y="761.128" width="8" height="8" transform="rotate(179.655 1167.15 761.128)" fill="#B0071D"/>
<rect x="1191.29" y="784.984" width="8" height="8" transform="rotate(179.655 1191.29 784.984)" fill="#B0071D"/>
<rect x="1175.2" y="769.08" width="8" height="8" transform="rotate(179.655 1175.2 769.08)" fill="#B0071D"/>
<rect x="1151.05" y="745.225" width="8" height="8" transform="rotate(179.655 1151.05 745.225)" fill="#B0071D"/>
<rect x="1134.96" y="729.322" width="8" height="8" transform="rotate(179.655 1134.96 729.322)" fill="#B0071D"/>
<rect x="1143" y="737.273" width="8" height="8" transform="rotate(179.655 1143 737.273)" fill="#B0071D"/>
<rect x="1126.91" y="721.37" width="8" height="8" transform="rotate(179.655 1126.91 721.37)" fill="#B0071D"/>
<rect x="1151.1" y="753.225" width="8" height="8" transform="rotate(-90.345 1151.1 753.225)" fill="#B0071D"/>
<rect x="1300.3" y="602.215" width="8" height="8" transform="rotate(-90.345 1300.3 602.215)" fill="#B0071D"/>
<rect x="1316.21" y="586.119" width="8" height="8" transform="rotate(-90.345 1316.21 586.119)" fill="#B0071D"/>
<rect x="1292.35" y="610.263" width="8" height="8" transform="rotate(-90.345 1292.35 610.263)" fill="#B0071D"/>
<rect x="1308.25" y="594.167" width="8" height="8" transform="rotate(-90.345 1308.25 594.167)" fill="#B0071D"/>
<rect x="1332.11" y="570.023" width="8" height="8" transform="rotate(-90.345 1332.11 570.023)" fill="#B0071D"/>
<rect x="1348.01" y="553.927" width="8" height="8" transform="rotate(-90.345 1348.01 553.927)" fill="#B0071D"/>
<rect x="1340.06" y="561.975" width="8" height="8" transform="rotate(-90.345 1340.06 561.975)" fill="#B0071D"/>
<rect x="1355.96" y="545.879" width="8" height="8" transform="rotate(-90.345 1355.96 545.879)" fill="#B0071D"/>
<rect x="1356.3" y="601.878" width="8" height="8" transform="rotate(179.655 1356.3 601.878)" fill="#B0071D"/>
<rect x="1340.21" y="585.974" width="8" height="8" transform="rotate(179.655 1340.21 585.974)" fill="#B0071D"/>
<rect x="1364.35" y="609.829" width="8" height="8" transform="rotate(179.655 1364.35 609.829)" fill="#B0071D"/>
<rect x="1348.25" y="593.926" width="8" height="8" transform="rotate(179.655 1348.25 593.926)" fill="#B0071D"/>
<rect x="1324.11" y="570.071" width="8" height="8" transform="rotate(179.655 1324.11 570.071)" fill="#B0071D"/>
<rect x="1308.01" y="554.168" width="8" height="8" transform="rotate(179.655 1308.01 554.168)" fill="#B0071D"/>
<rect x="1316.06" y="562.119" width="8" height="8" transform="rotate(179.655 1316.06 562.119)" fill="#B0071D"/>
<rect x="1299.97" y="546.216" width="8" height="8" transform="rotate(179.655 1299.97 546.216)" fill="#B0071D"/>
<rect x="1324.16" y="578.071" width="8" height="8" transform="rotate(-90.345 1324.16 578.071)" fill="#B0071D"/>
<rect x="257.765" y="956.718" width="8" height="8" transform="rotate(-90.345 257.765 956.718)" fill="#B0071D"/>
<rect x="273.668" y="940.621" width="8" height="8" transform="rotate(-90.345 273.668 940.621)" fill="#B0071D"/>
<rect x="249.813" y="964.766" width="8" height="8" transform="rotate(-90.345 249.813 964.766)" fill="#B0071D"/>
<rect x="265.716" y="948.669" width="8" height="8" transform="rotate(-90.345 265.716 948.669)" fill="#B0071D"/>
<rect x="289.571" y="924.525" width="8" height="8" transform="rotate(-90.345 289.571 924.525)" fill="#B0071D"/>
<rect x="305.475" y="908.429" width="8" height="8" transform="rotate(-90.345 305.475 908.429)" fill="#B0071D"/>
<rect x="297.523" y="916.477" width="8" height="8" transform="rotate(-90.345 297.523 916.477)" fill="#B0071D"/>
<rect x="313.427" y="900.381" width="8" height="8" transform="rotate(-90.345 313.427 900.381)" fill="#B0071D"/>
<rect x="313.764" y="956.38" width="8" height="8" transform="rotate(179.655 313.764 956.38)" fill="#B0071D"/>
<rect x="297.668" y="940.477" width="8" height="8" transform="rotate(179.655 297.668 940.477)" fill="#B0071D"/>
<rect x="321.812" y="964.332" width="8" height="8" transform="rotate(179.655 321.812 964.332)" fill="#B0071D"/>
<rect x="305.716" y="948.429" width="8" height="8" transform="rotate(179.655 305.716 948.429)" fill="#B0071D"/>
<rect x="281.572" y="924.574" width="8" height="8" transform="rotate(179.655 281.572 924.574)" fill="#B0071D"/>
<rect x="265.475" y="908.67" width="8" height="8" transform="rotate(179.655 265.475 908.67)" fill="#B0071D"/>
<rect x="273.524" y="916.622" width="8" height="8" transform="rotate(179.655 273.524 916.622)" fill="#B0071D"/>
<rect x="257.427" y="900.719" width="8" height="8" transform="rotate(179.655 257.427 900.719)" fill="#B0071D"/>
<rect x="281.62" y="932.573" width="8" height="8" transform="rotate(-90.345 281.62 932.573)" fill="#B0071D"/>
<rect x="605.977" y="954.62" width="8" height="8" transform="rotate(-90.345 605.977 954.62)" fill="#B0071D"/>
<rect x="621.88" y="938.524" width="8" height="8" transform="rotate(-90.345 621.88 938.524)" fill="#B0071D"/>
<rect x="598.025" y="962.668" width="8" height="8" transform="rotate(-90.345 598.025 962.668)" fill="#B0071D"/>
<rect x="613.928" y="946.572" width="8" height="8" transform="rotate(-90.345 613.928 946.572)" fill="#B0071D"/>
<rect x="637.783" y="922.428" width="8" height="8" transform="rotate(-90.345 637.783 922.428)" fill="#B0071D"/>
<rect x="653.687" y="906.332" width="8" height="8" transform="rotate(-90.345 653.687 906.332)" fill="#B0071D"/>
<rect x="645.735" y="914.38" width="8" height="8" transform="rotate(-90.345 645.735 914.38)" fill="#B0071D"/>
<rect x="661.638" y="898.284" width="8" height="8" transform="rotate(-90.345 661.638 898.284)" fill="#B0071D"/>
<rect x="661.976" y="954.283" width="8" height="8" transform="rotate(179.655 661.976 954.283)" fill="#B0071D"/>
<rect x="645.88" y="938.38" width="8" height="8" transform="rotate(179.655 645.88 938.38)" fill="#B0071D"/>
<rect x="670.024" y="962.235" width="8" height="8" transform="rotate(179.655 670.024 962.235)" fill="#B0071D"/>
<rect x="653.928" y="946.332" width="8" height="8" transform="rotate(179.655 653.928 946.332)" fill="#B0071D"/>
<rect x="629.783" y="922.477" width="8" height="8" transform="rotate(179.655 629.783 922.477)" fill="#B0071D"/>
<rect x="613.687" y="906.573" width="8" height="8" transform="rotate(179.655 613.687 906.573)" fill="#B0071D"/>
<rect x="621.735" y="914.525" width="8" height="8" transform="rotate(179.655 621.735 914.525)" fill="#B0071D"/>
<rect x="605.639" y="898.621" width="8" height="8" transform="rotate(179.655 605.639 898.621)" fill="#B0071D"/>
<rect x="629.832" y="930.476" width="8" height="8" transform="rotate(-90.345 629.832 930.476)" fill="#B0071D"/>
<rect x="954.189" y="952.524" width="8" height="8" transform="rotate(-90.345 954.189 952.524)" fill="#B0071D"/>
<rect x="970.092" y="936.427" width="8" height="8" transform="rotate(-90.345 970.092 936.427)" fill="#B0071D"/>
<rect x="946.237" y="960.572" width="8" height="8" transform="rotate(-90.345 946.237 960.572)" fill="#B0071D"/>
<rect x="962.141" y="944.475" width="8" height="8" transform="rotate(-90.345 962.141 944.475)" fill="#B0071D"/>
<rect x="985.995" y="920.331" width="8" height="8" transform="rotate(-90.345 985.995 920.331)" fill="#B0071D"/>
<rect x="1001.9" y="904.235" width="8" height="8" transform="rotate(-90.345 1001.9 904.235)" fill="#B0071D"/>
<rect x="993.947" y="912.283" width="8" height="8" transform="rotate(-90.345 993.947 912.283)" fill="#B0071D"/>
<rect x="1009.85" y="896.187" width="8" height="8" transform="rotate(-90.345 1009.85 896.187)" fill="#B0071D"/>
<rect x="1010.19" y="952.186" width="8" height="8" transform="rotate(179.655 1010.19 952.186)" fill="#B0071D"/>
<rect x="994.092" y="936.283" width="8" height="8" transform="rotate(179.655 994.092 936.283)" fill="#B0071D"/>
<rect x="1018.24" y="960.138" width="8" height="8" transform="rotate(179.655 1018.24 960.138)" fill="#B0071D"/>
<rect x="1002.14" y="944.235" width="8" height="8" transform="rotate(179.655 1002.14 944.235)" fill="#B0071D"/>
<rect x="977.996" y="920.38" width="8" height="8" transform="rotate(179.655 977.996 920.38)" fill="#B0071D"/>
<rect x="961.9" y="904.476" width="8" height="8" transform="rotate(179.655 961.9 904.476)" fill="#B0071D"/>
<rect x="969.948" y="912.428" width="8" height="8" transform="rotate(179.655 969.948 912.428)" fill="#B0071D"/>
<rect x="953.852" y="896.525" width="8" height="8" transform="rotate(179.655 953.852 896.525)" fill="#B0071D"/>
<rect x="978.044" y="928.38" width="8" height="8" transform="rotate(-90.345 978.044 928.38)" fill="#B0071D"/>
<rect x="1302.4" y="950.427" width="8" height="8" transform="rotate(-90.345 1302.4 950.427)" fill="#B0071D"/>
<rect x="1318.3" y="934.331" width="8" height="8" transform="rotate(-90.345 1318.3 934.331)" fill="#B0071D"/>
<rect x="1294.45" y="958.475" width="8" height="8" transform="rotate(-90.345 1294.45 958.475)" fill="#B0071D"/>
<rect x="1310.35" y="942.379" width="8" height="8" transform="rotate(-90.345 1310.35 942.379)" fill="#B0071D"/>
<rect x="1334.21" y="918.235" width="8" height="8" transform="rotate(-90.345 1334.21 918.235)" fill="#B0071D"/>
<rect x="1350.11" y="902.139" width="8" height="8" transform="rotate(-90.345 1350.11 902.139)" fill="#B0071D"/>
<rect x="1342.16" y="910.187" width="8" height="8" transform="rotate(-90.345 1342.16 910.187)" fill="#B0071D"/>
<rect x="1358.06" y="894.091" width="8" height="8" transform="rotate(-90.345 1358.06 894.091)" fill="#B0071D"/>
<rect x="1358.4" y="950.089" width="8" height="8" transform="rotate(179.655 1358.4 950.089)" fill="#B0071D"/>
<rect x="1342.3" y="934.186" width="8" height="8" transform="rotate(179.655 1342.3 934.186)" fill="#B0071D"/>
<rect x="1366.45" y="958.041" width="8" height="8" transform="rotate(179.655 1366.45 958.041)" fill="#B0071D"/>
<rect x="1350.35" y="942.138" width="8" height="8" transform="rotate(179.655 1350.35 942.138)" fill="#B0071D"/>
<rect x="1326.21" y="918.283" width="8" height="8" transform="rotate(179.655 1326.21 918.283)" fill="#B0071D"/>
<rect x="1310.11" y="902.379" width="8" height="8" transform="rotate(179.655 1310.11 902.379)" fill="#B0071D"/>
<rect x="1318.16" y="910.331" width="8" height="8" transform="rotate(179.655 1318.16 910.331)" fill="#B0071D"/>
<rect x="1302.06" y="894.428" width="8" height="8" transform="rotate(179.655 1302.06 894.428)" fill="#B0071D"/>
<rect x="1326.25" y="926.283" width="8" height="8" transform="rotate(-90.345 1326.25 926.283)" fill="#B0071D"/>
<rect x="80.5136" y="435.448" width="8" height="8" transform="rotate(-90.345 80.5136 435.448)" fill="#B0071D"/>
<rect x="96.4169" y="419.352" width="8" height="8" transform="rotate(-90.345 96.4169 419.352)" fill="#B0071D"/>
<rect x="72.562" y="443.496" width="8" height="8" transform="rotate(-90.345 72.562 443.496)" fill="#B0071D"/>
<rect x="88.4653" y="427.4" width="8" height="8" transform="rotate(-90.345 88.4653 427.4)" fill="#B0071D"/>
<rect x="112.32" y="403.256" width="8" height="8" transform="rotate(-90.345 112.32 403.256)" fill="#B0071D"/>
<rect x="128.224" y="387.16" width="8" height="8" transform="rotate(-90.345 128.224 387.16)" fill="#B0071D"/>
<rect x="120.272" y="395.208" width="8" height="8" transform="rotate(-90.345 120.272 395.208)" fill="#B0071D"/>
<rect x="136.175" y="379.112" width="8" height="8" transform="rotate(-90.345 136.175 379.112)" fill="#B0071D"/>
<rect x="136.513" y="435.111" width="8" height="8" transform="rotate(179.655 136.513 435.111)" fill="#B0071D"/>
<rect x="120.417" y="419.208" width="8" height="8" transform="rotate(179.655 120.417 419.208)" fill="#B0071D"/>
<rect x="144.561" y="443.063" width="8" height="8" transform="rotate(179.655 144.561 443.063)" fill="#B0071D"/>
<rect x="128.465" y="427.16" width="8" height="8" transform="rotate(179.655 128.465 427.16)" fill="#B0071D"/>
<rect x="104.32" y="403.305" width="8" height="8" transform="rotate(179.655 104.32 403.305)" fill="#B0071D"/>
<rect x="88.2244" y="387.401" width="8" height="8" transform="rotate(179.655 88.2244 387.401)" fill="#B0071D"/>
<rect x="96.2725" y="395.353" width="8" height="8" transform="rotate(179.655 96.2725 395.353)" fill="#B0071D"/>
<rect x="80.1764" y="379.45" width="8" height="8" transform="rotate(179.655 80.1764 379.45)" fill="#B0071D"/>
<rect x="104.369" y="411.304" width="8" height="8" transform="rotate(-90.345 104.369 411.304)" fill="#B0071D"/>
<rect x="253.571" y="260.294" width="8" height="8" transform="rotate(-90.345 253.571 260.294)" fill="#B0071D"/>
<rect x="269.474" y="244.198" width="8" height="8" transform="rotate(-90.345 269.474 244.198)" fill="#B0071D"/>
<rect x="245.62" y="268.342" width="8" height="8" transform="rotate(-90.345 245.62 268.342)" fill="#B0071D"/>
<rect x="261.523" y="252.246" width="8" height="8" transform="rotate(-90.345 261.523 252.246)" fill="#B0071D"/>
<rect x="285.378" y="228.102" width="8" height="8" transform="rotate(-90.345 285.378 228.102)" fill="#B0071D"/>
<rect x="301.281" y="212.006" width="8" height="8" transform="rotate(-90.345 301.281 212.006)" fill="#B0071D"/>
<rect x="293.33" y="220.054" width="8" height="8" transform="rotate(-90.345 293.33 220.054)" fill="#B0071D"/>
<rect x="309.233" y="203.958" width="8" height="8" transform="rotate(-90.345 309.233 203.958)" fill="#B0071D"/>
<rect x="309.57" y="259.957" width="8" height="8" transform="rotate(179.655 309.57 259.957)" fill="#B0071D"/>
<rect x="293.474" y="244.054" width="8" height="8" transform="rotate(179.655 293.474 244.054)" fill="#B0071D"/>
<rect x="317.618" y="267.909" width="8" height="8" transform="rotate(179.655 317.618 267.909)" fill="#B0071D"/>
<rect x="301.522" y="252.005" width="8" height="8" transform="rotate(179.655 301.522 252.005)" fill="#B0071D"/>
<rect x="277.378" y="228.15" width="8" height="8" transform="rotate(179.655 277.378 228.15)" fill="#B0071D"/>
<rect x="261.282" y="212.247" width="8" height="8" transform="rotate(179.655 261.282 212.247)" fill="#B0071D"/>
<rect x="269.33" y="220.199" width="8" height="8" transform="rotate(179.655 269.33 220.199)" fill="#B0071D"/>
<rect x="253.234" y="204.295" width="8" height="8" transform="rotate(179.655 253.234 204.295)" fill="#B0071D"/>
<rect x="277.426" y="236.15" width="8" height="8" transform="rotate(-90.345 277.426 236.15)" fill="#B0071D"/>
<rect x="428.725" y="433.351" width="8" height="8" transform="rotate(-90.345 428.725 433.351)" fill="#B0071D"/>
<rect x="444.629" y="417.255" width="8" height="8" transform="rotate(-90.345 444.629 417.255)" fill="#B0071D"/>
<rect x="420.774" y="441.399" width="8" height="8" transform="rotate(-90.345 420.774 441.399)" fill="#B0071D"/>
<rect x="436.677" y="425.303" width="8" height="8" transform="rotate(-90.345 436.677 425.303)" fill="#B0071D"/>
<rect x="460.532" y="401.159" width="8" height="8" transform="rotate(-90.345 460.532 401.159)" fill="#B0071D"/>
<rect x="476.435" y="385.063" width="8" height="8" transform="rotate(-90.345 476.435 385.063)" fill="#B0071D"/>
<rect x="468.484" y="393.111" width="8" height="8" transform="rotate(-90.345 468.484 393.111)" fill="#B0071D"/>
<rect x="484.387" y="377.015" width="8" height="8" transform="rotate(-90.345 484.387 377.015)" fill="#B0071D"/>
<rect x="484.724" y="433.014" width="8" height="8" transform="rotate(179.655 484.724 433.014)" fill="#B0071D"/>
<rect x="468.628" y="417.111" width="8" height="8" transform="rotate(179.655 468.628 417.111)" fill="#B0071D"/>
<rect x="492.772" y="440.966" width="8" height="8" transform="rotate(179.655 492.772 440.966)" fill="#B0071D"/>
<rect x="476.676" y="425.062" width="8" height="8" transform="rotate(179.655 476.676 425.062)" fill="#B0071D"/>
<rect x="452.532" y="401.207" width="8" height="8" transform="rotate(179.655 452.532 401.207)" fill="#B0071D"/>
<rect x="436.436" y="385.304" width="8" height="8" transform="rotate(179.655 436.436 385.304)" fill="#B0071D"/>
<rect x="444.484" y="393.256" width="8" height="8" transform="rotate(179.655 444.484 393.256)" fill="#B0071D"/>
<rect x="428.388" y="377.352" width="8" height="8" transform="rotate(179.655 428.388 377.352)" fill="#B0071D"/>
<rect x="452.58" y="409.207" width="8" height="8" transform="rotate(-90.345 452.58 409.207)" fill="#B0071D"/>
<rect x="601.783" y="258.197" width="8" height="8" transform="rotate(-90.345 601.783 258.197)" fill="#B0071D"/>
<rect x="617.686" y="242.101" width="8" height="8" transform="rotate(-90.345 617.686 242.101)" fill="#B0071D"/>
<rect x="593.831" y="266.245" width="8" height="8" transform="rotate(-90.345 593.831 266.245)" fill="#B0071D"/>
<rect x="609.735" y="250.149" width="8" height="8" transform="rotate(-90.345 609.735 250.149)" fill="#B0071D"/>
<rect x="633.59" y="226.005" width="8" height="8" transform="rotate(-90.345 633.59 226.005)" fill="#B0071D"/>
<rect x="649.493" y="209.909" width="8" height="8" transform="rotate(-90.345 649.493 209.909)" fill="#B0071D"/>
<rect x="641.541" y="217.957" width="8" height="8" transform="rotate(-90.345 641.541 217.957)" fill="#B0071D"/>
<rect x="657.445" y="201.861" width="8" height="8" transform="rotate(-90.345 657.445 201.861)" fill="#B0071D"/>
<rect x="657.782" y="257.86" width="8" height="8" transform="rotate(179.655 657.782 257.86)" fill="#B0071D"/>
<rect x="641.686" y="241.957" width="8" height="8" transform="rotate(179.655 641.686 241.957)" fill="#B0071D"/>
<rect x="665.83" y="265.812" width="8" height="8" transform="rotate(179.655 665.83 265.812)" fill="#B0071D"/>
<rect x="649.734" y="249.908" width="8" height="8" transform="rotate(179.655 649.734 249.908)" fill="#B0071D"/>
<rect x="625.59" y="226.053" width="8" height="8" transform="rotate(179.655 625.59 226.053)" fill="#B0071D"/>
<rect x="609.494" y="210.15" width="8" height="8" transform="rotate(179.655 609.494 210.15)" fill="#B0071D"/>
<rect x="617.542" y="218.102" width="8" height="8" transform="rotate(179.655 617.542 218.102)" fill="#B0071D"/>
<rect x="601.446" y="202.198" width="8" height="8" transform="rotate(179.655 601.446 202.198)" fill="#B0071D"/>
<rect x="625.638" y="234.053" width="8" height="8" transform="rotate(-90.345 625.638 234.053)" fill="#B0071D"/>
<rect x="776.937" y="431.255" width="8" height="8" transform="rotate(-90.345 776.937 431.255)" fill="#B0071D"/>
<rect x="792.84" y="415.159" width="8" height="8" transform="rotate(-90.345 792.84 415.159)" fill="#B0071D"/>
<rect x="768.985" y="439.303" width="8" height="8" transform="rotate(-90.345 768.985 439.303)" fill="#B0071D"/>
<rect x="784.889" y="423.207" width="8" height="8" transform="rotate(-90.345 784.889 423.207)" fill="#B0071D"/>
<rect x="808.744" y="399.062" width="8" height="8" transform="rotate(-90.345 808.744 399.062)" fill="#B0071D"/>
<rect x="824.647" y="382.966" width="8" height="8" transform="rotate(-90.345 824.647 382.966)" fill="#B0071D"/>
<rect x="816.695" y="391.014" width="8" height="8" transform="rotate(-90.345 816.695 391.014)" fill="#B0071D"/>
<rect x="832.599" y="374.918" width="8" height="8" transform="rotate(-90.345 832.599 374.918)" fill="#B0071D"/>
<rect x="832.936" y="430.917" width="8" height="8" transform="rotate(179.655 832.936 430.917)" fill="#B0071D"/>
<rect x="816.84" y="415.014" width="8" height="8" transform="rotate(179.655 816.84 415.014)" fill="#B0071D"/>
<rect x="840.984" y="438.869" width="8" height="8" transform="rotate(179.655 840.984 438.869)" fill="#B0071D"/>
<rect x="824.888" y="422.966" width="8" height="8" transform="rotate(179.655 824.888 422.966)" fill="#B0071D"/>
<rect x="800.744" y="399.111" width="8" height="8" transform="rotate(179.655 800.744 399.111)" fill="#B0071D"/>
<rect x="784.648" y="383.207" width="8" height="8" transform="rotate(179.655 784.648 383.207)" fill="#B0071D"/>
<rect x="792.696" y="391.159" width="8" height="8" transform="rotate(179.655 792.696 391.159)" fill="#B0071D"/>
<rect x="776.6" y="375.256" width="8" height="8" transform="rotate(179.655 776.6 375.256)" fill="#B0071D"/>
<rect x="800.792" y="407.111" width="8" height="8" transform="rotate(-90.345 800.792 407.111)" fill="#B0071D"/>
<rect x="949.994" y="256.101" width="8" height="8" transform="rotate(-90.345 949.994 256.101)" fill="#B0071D"/>
<rect x="965.897" y="240.005" width="8" height="8" transform="rotate(-90.345 965.897 240.005)" fill="#B0071D"/>
<rect x="942.042" y="264.149" width="8" height="8" transform="rotate(-90.345 942.042 264.149)" fill="#B0071D"/>
<rect x="957.946" y="248.053" width="8" height="8" transform="rotate(-90.345 957.946 248.053)" fill="#B0071D"/>
<rect x="981.801" y="223.908" width="8" height="8" transform="rotate(-90.345 981.801 223.908)" fill="#B0071D"/>
<rect x="997.704" y="207.812" width="8" height="8" transform="rotate(-90.345 997.704 207.812)" fill="#B0071D"/>
<rect x="989.752" y="215.86" width="8" height="8" transform="rotate(-90.345 989.752 215.86)" fill="#B0071D"/>
<rect x="1005.66" y="199.764" width="8" height="8" transform="rotate(-90.345 1005.66 199.764)" fill="#B0071D"/>
<rect x="1005.99" y="255.763" width="8" height="8" transform="rotate(179.655 1005.99 255.763)" fill="#B0071D"/>
<rect x="989.897" y="239.86" width="8" height="8" transform="rotate(179.655 989.897 239.86)" fill="#B0071D"/>
<rect x="1014.04" y="263.715" width="8" height="8" transform="rotate(179.655 1014.04 263.715)" fill="#B0071D"/>
<rect x="997.945" y="247.812" width="8" height="8" transform="rotate(179.655 997.945 247.812)" fill="#B0071D"/>
<rect x="973.801" y="223.957" width="8" height="8" transform="rotate(179.655 973.801 223.957)" fill="#B0071D"/>
<rect x="957.705" y="208.053" width="8" height="8" transform="rotate(179.655 957.705 208.053)" fill="#B0071D"/>
<rect x="965.753" y="216.005" width="8" height="8" transform="rotate(179.655 965.753 216.005)" fill="#B0071D"/>
<rect x="949.657" y="200.102" width="8" height="8" transform="rotate(179.655 949.657 200.102)" fill="#B0071D"/>
<rect x="973.849" y="231.956" width="8" height="8" transform="rotate(-90.345 973.849 231.956)" fill="#B0071D"/>
<rect x="1125.15" y="429.158" width="8" height="8" transform="rotate(-90.345 1125.15 429.158)" fill="#B0071D"/>
<rect x="1141.05" y="413.062" width="8" height="8" transform="rotate(-90.345 1141.05 413.062)" fill="#B0071D"/>
<rect x="1117.2" y="437.206" width="8" height="8" transform="rotate(-90.345 1117.2 437.206)" fill="#B0071D"/>
<rect x="1133.1" y="421.11" width="8" height="8" transform="rotate(-90.345 1133.1 421.11)" fill="#B0071D"/>
<rect x="1156.96" y="396.965" width="8" height="8" transform="rotate(-90.345 1156.96 396.965)" fill="#B0071D"/>
<rect x="1172.86" y="380.869" width="8" height="8" transform="rotate(-90.345 1172.86 380.869)" fill="#B0071D"/>
<rect x="1164.91" y="388.917" width="8" height="8" transform="rotate(-90.345 1164.91 388.917)" fill="#B0071D"/>
<rect x="1180.81" y="372.821" width="8" height="8" transform="rotate(-90.345 1180.81 372.821)" fill="#B0071D"/>
<rect x="1181.15" y="428.82" width="8" height="8" transform="rotate(179.655 1181.15 428.82)" fill="#B0071D"/>
<rect x="1165.05" y="412.917" width="8" height="8" transform="rotate(179.655 1165.05 412.917)" fill="#B0071D"/>
<rect x="1189.2" y="436.772" width="8" height="8" transform="rotate(179.655 1189.2 436.772)" fill="#B0071D"/>
<rect x="1173.1" y="420.869" width="8" height="8" transform="rotate(179.655 1173.1 420.869)" fill="#B0071D"/>
<rect x="1148.96" y="397.014" width="8" height="8" transform="rotate(179.655 1148.96 397.014)" fill="#B0071D"/>
<rect x="1132.86" y="381.11" width="8" height="8" transform="rotate(179.655 1132.86 381.11)" fill="#B0071D"/>
<rect x="1140.91" y="389.062" width="8" height="8" transform="rotate(179.655 1140.91 389.062)" fill="#B0071D"/>
<rect x="1124.81" y="373.159" width="8" height="8" transform="rotate(179.655 1124.81 373.159)" fill="#B0071D"/>
<rect x="1149" y="405.013" width="8" height="8" transform="rotate(-90.345 1149 405.013)" fill="#B0071D"/>
<rect x="1298.21" y="254.003" width="8" height="8" transform="rotate(-90.345 1298.21 254.003)" fill="#B0071D"/>
<rect x="1314.11" y="237.907" width="8" height="8" transform="rotate(-90.345 1314.11 237.907)" fill="#B0071D"/>
<rect x="1290.25" y="262.051" width="8" height="8" transform="rotate(-90.345 1290.25 262.051)" fill="#B0071D"/>
<rect x="1306.16" y="245.955" width="8" height="8" transform="rotate(-90.345 1306.16 245.955)" fill="#B0071D"/>
<rect x="1330.01" y="221.811" width="8" height="8" transform="rotate(-90.345 1330.01 221.811)" fill="#B0071D"/>
<rect x="1345.92" y="205.715" width="8" height="8" transform="rotate(-90.345 1345.92 205.715)" fill="#B0071D"/>
<rect x="1337.96" y="213.763" width="8" height="8" transform="rotate(-90.345 1337.96 213.763)" fill="#B0071D"/>
<rect x="1353.87" y="197.667" width="8" height="8" transform="rotate(-90.345 1353.87 197.667)" fill="#B0071D"/>
<rect x="1354.2" y="253.666" width="8" height="8" transform="rotate(179.655 1354.2 253.666)" fill="#B0071D"/>
<rect x="1338.11" y="237.763" width="8" height="8" transform="rotate(179.655 1338.11 237.763)" fill="#B0071D"/>
<rect x="1362.25" y="261.618" width="8" height="8" transform="rotate(179.655 1362.25 261.618)" fill="#B0071D"/>
<rect x="1346.16" y="245.714" width="8" height="8" transform="rotate(179.655 1346.16 245.714)" fill="#B0071D"/>
<rect x="1322.01" y="221.859" width="8" height="8" transform="rotate(179.655 1322.01 221.859)" fill="#B0071D"/>
<rect x="1305.92" y="205.956" width="8" height="8" transform="rotate(179.655 1305.92 205.956)" fill="#B0071D"/>
<rect x="1313.96" y="213.908" width="8" height="8" transform="rotate(179.655 1313.96 213.908)" fill="#B0071D"/>
<rect x="1297.87" y="198.004" width="8" height="8" transform="rotate(179.655 1297.87 198.004)" fill="#B0071D"/>
<rect x="1322.06" y="229.859" width="8" height="8" transform="rotate(-90.345 1322.06 229.859)" fill="#B0071D"/>
<rect x="78.6111" y="114.469" width="8" height="8" transform="rotate(-90.345 78.6111 114.469)" fill="#B0071D"/>
<rect x="94.5145" y="98.3724" width="8" height="8" transform="rotate(-90.345 94.5145 98.3724)" fill="#B0071D"/>
<rect x="70.6595" y="122.517" width="8" height="8" transform="rotate(-90.345 70.6595 122.517)" fill="#B0071D"/>
<rect x="86.5628" y="106.42" width="8" height="8" transform="rotate(-90.345 86.5628 106.42)" fill="#B0071D"/>
<rect x="110.418" y="82.2764" width="8" height="8" transform="rotate(-90.345 110.418 82.2764)" fill="#B0071D"/>
<rect x="126.321" y="66.1803" width="8" height="8" transform="rotate(-90.345 126.321 66.1803)" fill="#B0071D"/>
<rect x="118.37" y="74.2283" width="8" height="8" transform="rotate(-90.345 118.37 74.2283)" fill="#B0071D"/>
<rect x="134.273" y="58.1323" width="8" height="8" transform="rotate(-90.345 134.273 58.1323)" fill="#B0071D"/>
<rect x="134.61" y="114.131" width="8" height="8" transform="rotate(179.655 134.61 114.131)" fill="#B0071D"/>
<rect x="118.514" y="98.2279" width="8" height="8" transform="rotate(179.655 118.514 98.2279)" fill="#B0071D"/>
<rect x="142.658" y="122.083" width="8" height="8" transform="rotate(179.655 142.658 122.083)" fill="#B0071D"/>
<rect x="126.562" y="106.18" width="8" height="8" transform="rotate(179.655 126.562 106.18)" fill="#B0071D"/>
<rect x="102.418" y="82.3245" width="8" height="8" transform="rotate(179.655 102.418 82.3245)" fill="#B0071D"/>
<rect x="86.322" y="66.4212" width="8" height="8" transform="rotate(179.655 86.322 66.4212)" fill="#B0071D"/>
<rect x="94.37" y="74.3729" width="8" height="8" transform="rotate(179.655 94.37 74.3729)" fill="#B0071D"/>
<rect x="78.2739" y="58.4695" width="8" height="8" transform="rotate(179.655 78.2739 58.4695)" fill="#B0071D"/>
<rect x="102.466" y="90.3244" width="8" height="8" transform="rotate(-90.345 102.466 90.3244)" fill="#B0071D"/>
<rect x="426.823" y="112.372" width="8" height="8" transform="rotate(-90.345 426.823 112.372)" fill="#B0071D"/>
<rect x="442.726" y="96.2758" width="8" height="8" transform="rotate(-90.345 442.726 96.2758)" fill="#B0071D"/>
<rect x="418.871" y="120.42" width="8" height="8" transform="rotate(-90.345 418.871 120.42)" fill="#B0071D"/>
<rect x="434.775" y="104.324" width="8" height="8" transform="rotate(-90.345 434.775 104.324)" fill="#B0071D"/>
<rect x="458.63" y="80.1797" width="8" height="8" transform="rotate(-90.345 458.63 80.1797)" fill="#B0071D"/>
<rect x="474.533" y="64.0836" width="8" height="8" transform="rotate(-90.345 474.533 64.0836)" fill="#B0071D"/>
<rect x="466.581" y="72.1317" width="8" height="8" transform="rotate(-90.345 466.581 72.1317)" fill="#B0071D"/>
<rect x="482.485" y="56.0356" width="8" height="8" transform="rotate(-90.345 482.485 56.0356)" fill="#B0071D"/>
<rect x="482.822" y="112.035" width="8" height="8" transform="rotate(179.655 482.822 112.035)" fill="#B0071D"/>
<rect x="466.726" y="96.1312" width="8" height="8" transform="rotate(179.655 466.726 96.1312)" fill="#B0071D"/>
<rect x="490.87" y="119.986" width="8" height="8" transform="rotate(179.655 490.87 119.986)" fill="#B0071D"/>
<rect x="474.774" y="104.083" width="8" height="8" transform="rotate(179.655 474.774 104.083)" fill="#B0071D"/>
<rect x="450.63" y="80.2278" width="8" height="8" transform="rotate(179.655 450.63 80.2278)" fill="#B0071D"/>
<rect x="434.534" y="64.3245" width="8" height="8" transform="rotate(179.655 434.534 64.3245)" fill="#B0071D"/>
<rect x="442.582" y="72.2762" width="8" height="8" transform="rotate(179.655 442.582 72.2762)" fill="#B0071D"/>
<rect x="426.486" y="56.3729" width="8" height="8" transform="rotate(179.655 426.486 56.3729)" fill="#B0071D"/>
<rect x="450.678" y="88.2277" width="8" height="8" transform="rotate(-90.345 450.678 88.2277)" fill="#B0071D"/>
<rect x="775.034" y="110.275" width="8" height="8" transform="rotate(-90.345 775.034 110.275)" fill="#B0071D"/>
<rect x="790.938" y="94.1788" width="8" height="8" transform="rotate(-90.345 790.938 94.1788)" fill="#B0071D"/>
<rect x="767.083" y="118.323" width="8" height="8" transform="rotate(-90.345 767.083 118.323)" fill="#B0071D"/>
<rect x="782.986" y="102.227" width="8" height="8" transform="rotate(-90.345 782.986 102.227)" fill="#B0071D"/>
<rect x="806.841" y="78.0828" width="8" height="8" transform="rotate(-90.345 806.841 78.0828)" fill="#B0071D"/>
<rect x="822.744" y="61.9867" width="8" height="8" transform="rotate(-90.345 822.744 61.9867)" fill="#B0071D"/>
<rect x="814.793" y="70.0347" width="8" height="8" transform="rotate(-90.345 814.793 70.0347)" fill="#B0071D"/>
<rect x="830.696" y="53.9387" width="8" height="8" transform="rotate(-90.345 830.696 53.9387)" fill="#B0071D"/>
<rect x="831.033" y="109.938" width="8" height="8" transform="rotate(179.655 831.033 109.938)" fill="#B0071D"/>
<rect x="814.937" y="94.0343" width="8" height="8" transform="rotate(179.655 814.937 94.0343)" fill="#B0071D"/>
<rect x="839.081" y="117.889" width="8" height="8" transform="rotate(179.655 839.081 117.889)" fill="#B0071D"/>
<rect x="822.985" y="101.986" width="8" height="8" transform="rotate(179.655 822.985 101.986)" fill="#B0071D"/>
<rect x="798.841" y="78.1309" width="8" height="8" transform="rotate(179.655 798.841 78.1309)" fill="#B0071D"/>
<rect x="782.745" y="62.2276" width="8" height="8" transform="rotate(179.655 782.745 62.2276)" fill="#B0071D"/>
<rect x="790.793" y="70.1793" width="8" height="8" transform="rotate(179.655 790.793 70.1793)" fill="#B0071D"/>
<rect x="774.697" y="54.2759" width="8" height="8" transform="rotate(179.655 774.697 54.2759)" fill="#B0071D"/>
<rect x="798.889" y="86.1308" width="8" height="8" transform="rotate(-90.345 798.889 86.1308)" fill="#B0071D"/>
<rect x="1123.25" y="108.178" width="8" height="8" transform="rotate(-90.345 1123.25 108.178)" fill="#B0071D"/>
<rect x="1139.15" y="92.082" width="8" height="8" transform="rotate(-90.345 1139.15 92.082)" fill="#B0071D"/>
<rect x="1115.29" y="116.226" width="8" height="8" transform="rotate(-90.345 1115.29 116.226)" fill="#B0071D"/>
<rect x="1131.2" y="100.13" width="8" height="8" transform="rotate(-90.345 1131.2 100.13)" fill="#B0071D"/>
<rect x="1155.05" y="75.9859" width="8" height="8" transform="rotate(-90.345 1155.05 75.9859)" fill="#B0071D"/>
<rect x="1170.96" y="59.8898" width="8" height="8" transform="rotate(-90.345 1170.96 59.8898)" fill="#B0071D"/>
<rect x="1163" y="67.9379" width="8" height="8" transform="rotate(-90.345 1163 67.9379)" fill="#B0071D"/>
<rect x="1178.91" y="51.8418" width="8" height="8" transform="rotate(-90.345 1178.91 51.8418)" fill="#B0071D"/>
<rect x="1179.24" y="107.841" width="8" height="8" transform="rotate(179.655 1179.24 107.841)" fill="#B0071D"/>
<rect x="1163.15" y="91.9374" width="8" height="8" transform="rotate(179.655 1163.15 91.9374)" fill="#B0071D"/>
<rect x="1187.29" y="115.792" width="8" height="8" transform="rotate(179.655 1187.29 115.792)" fill="#B0071D"/>
<rect x="1171.2" y="99.8891" width="8" height="8" transform="rotate(179.655 1171.2 99.8891)" fill="#B0071D"/>
<rect x="1147.05" y="76.0341" width="8" height="8" transform="rotate(179.655 1147.05 76.0341)" fill="#B0071D"/>
<rect x="1130.96" y="60.1307" width="8" height="8" transform="rotate(179.655 1130.96 60.1307)" fill="#B0071D"/>
<rect x="1139" y="68.0824" width="8" height="8" transform="rotate(179.655 1139 68.0824)" fill="#B0071D"/>
<rect x="1122.91" y="52.1791" width="8" height="8" transform="rotate(179.655 1122.91 52.1791)" fill="#B0071D"/>
<rect x="1147.1" y="84.0339" width="8" height="8" transform="rotate(-90.345 1147.1 84.0339)" fill="#B0071D"/>
<circle cx="1221" cy="974" r="23" transform="rotate(-180 1221 974)" stroke="#BE0E25" stroke-width="2"/>
<circle cx="1121" cy="874" r="23" transform="rotate(-180 1121 874)" stroke="#BE0E25" stroke-width="2"/>
<circle cx="1221" cy="630" r="23" transform="rotate(-180 1221 630)" stroke="#BE0E25" stroke-width="2"/>
<circle cx="1121" cy="530" r="23" transform="rotate(-180 1121 530)" stroke="#BE0E25" stroke-width="2"/>
<circle cx="1221" cy="286" r="23" transform="rotate(-180 1221 286)" stroke="#BE0E25" stroke-width="2"/>
<circle cx="1121" cy="186" r="23" transform="rotate(-180 1121 186)" stroke="#BE0E25" stroke-width="2"/>
<circle cx="532.999" cy="974" r="23" transform="rotate(-180 532.999 974)" stroke="#BE0E25" stroke-width="2"/>
<circle cx="432.999" cy="874" r="23" transform="rotate(-180 432.999 874)" stroke="#BE0E25" stroke-width="2"/>
<circle cx="532.999" cy="630" r="23" transform="rotate(-180 532.999 630)" stroke="#BE0E25" stroke-width="2"/>
<circle cx="432.999" cy="530" r="23" transform="rotate(-180 432.999 530)" stroke="#BE0E25" stroke-width="2"/>
<circle cx="533" cy="286" r="23" transform="rotate(-180 533 286)" stroke="#BE0E25" stroke-width="2"/>
<circle cx="433" cy="186" r="23" transform="rotate(-180 433 186)" stroke="#BE0E25" stroke-width="2"/>
<circle cx="876.999" cy="974" r="23" transform="rotate(-180 876.999 974)" stroke="#BE0E25" stroke-width="2"/>
<circle cx="776.999" cy="874" r="23" transform="rotate(-180 776.999 874)" stroke="#BE0E25" stroke-width="2"/>
<circle cx="876.999" cy="630" r="23" transform="rotate(-180 876.999 630)" stroke="#BE0E25" stroke-width="2"/>
<circle cx="776.999" cy="530" r="23" transform="rotate(-180 776.999 530)" stroke="#BE0E25" stroke-width="2"/>
<circle cx="877" cy="286" r="23" transform="rotate(-180 877 286)" stroke="#BE0E25" stroke-width="2"/>
<circle cx="777" cy="186" r="23" transform="rotate(-180 777 186)" stroke="#BE0E25" stroke-width="2"/>
<circle cx="189" cy="974" r="23" transform="rotate(-180 189 974)" stroke="#BE0E25" stroke-width="2"/>
<circle cx="89.0004" cy="874" r="23" transform="rotate(-180 89.0004 874)" stroke="#BE0E25" stroke-width="2"/>
<circle cx="189.001" cy="630" r="23" transform="rotate(-180 189.001 630)" stroke="#BE0E25" stroke-width="2"/>
<circle cx="89.0006" cy="530" r="23" transform="rotate(-180 89.0006 530)" stroke="#BE0E25" stroke-width="2"/>
<circle cx="189" cy="286" r="23" transform="rotate(-180 189 286)" stroke="#BE0E25" stroke-width="2"/>
<circle cx="89.0004" cy="186" r="23" transform="rotate(-180 89.0004 186)" stroke="#BE0E25" stroke-width="2"/>
<circle cx="1367" cy="776" r="23" transform="rotate(-180 1367 776)" stroke="#BE0E25" stroke-width="2"/>
<circle cx="1367" cy="432" r="23" transform="rotate(-180 1367 432)" stroke="#BE0E25" stroke-width="2"/>
<circle cx="1367" cy="88" r="23" transform="rotate(-180 1367 88)" stroke="#BE0E25" stroke-width="2"/>
<circle cx="778.999" cy="876" r="23" transform="rotate(-180 778.999 876)" stroke="#BE0E25" stroke-width="2"/>
<circle cx="678.999" cy="776" r="23" transform="rotate(-180 678.999 776)" stroke="#BE0E25" stroke-width="2"/>
<circle cx="779" cy="532" r="23" transform="rotate(-180 779 532)" stroke="#BE0E25" stroke-width="2"/>
<circle cx="679" cy="432" r="23" transform="rotate(-180 679 432)" stroke="#BE0E25" stroke-width="2"/>
<circle cx="779" cy="188" r="23" transform="rotate(-180 779 188)" stroke="#BE0E25" stroke-width="2"/>
<circle cx="679" cy="88" r="23" transform="rotate(-180 679 88)" stroke="#BE0E25" stroke-width="2"/>
<circle cx="1123" cy="876" r="23" transform="rotate(-180 1123 876)" stroke="#BE0E25" stroke-width="2"/>
<circle cx="1023" cy="776" r="23" transform="rotate(-180 1023 776)" stroke="#BE0E25" stroke-width="2"/>
<circle cx="1123" cy="532" r="23" transform="rotate(-180 1123 532)" stroke="#BE0E25" stroke-width="2"/>
<circle cx="1023" cy="432" r="23" transform="rotate(-180 1023 432)" stroke="#BE0E25" stroke-width="2"/>
<circle cx="1123" cy="188" r="23" transform="rotate(-180 1123 188)" stroke="#BE0E25" stroke-width="2"/>
<circle cx="1023" cy="88" r="23" transform="rotate(-180 1023 88)" stroke="#BE0E25" stroke-width="2"/>
<circle cx="435.001" cy="876" r="23" transform="rotate(-180 435.001 876)" stroke="#BE0E25" stroke-width="2"/>
<circle cx="335.001" cy="776" r="23" transform="rotate(-180 335.001 776)" stroke="#BE0E25" stroke-width="2"/>
<circle cx="435" cy="532" r="23" transform="rotate(-180 435 532)" stroke="#BE0E25" stroke-width="2"/>
<circle cx="335" cy="432" r="23" transform="rotate(-180 335 432)" stroke="#BE0E25" stroke-width="2"/>
<circle cx="435" cy="188" r="23" transform="rotate(-180 435 188)" stroke="#BE0E25" stroke-width="2"/>
<circle cx="335" cy="88.0002" r="23" transform="rotate(-180 335 88.0002)" stroke="#BE0E25" stroke-width="2"/>
</g>
<defs>
<clipPath id="clip0_218_2">
<rect width="1440" height="1024" fill="white"/>
</clipPath>
</defs>
</svg>
