<svg width="1440" height="1024" viewBox="0 0 1440 1024" fill="none" xmlns="http://www.w3.org/2000/svg">
<g clip-path="url(#clip0_2_4)">
<rect width="1440" height="1024" fill="#810515"/>
<rect x="6.40527" y="744.85" width="8" height="8" transform="rotate(-13.618 6.40527 744.85)" fill="#B0071D"/>
<rect x="25.7226" y="756.633" width="8" height="8" transform="rotate(-13.618 25.7226 756.633)" fill="#B0071D"/>
<rect x="16.0639" y="750.742" width="8" height="8" transform="rotate(-13.618 16.0639 750.742)" fill="#B0071D"/>
<rect x="35.3813" y="762.525" width="8" height="8" transform="rotate(-13.618 35.3813 762.525)" fill="#B0071D"/>
<rect x="-7.26135" y="756.392" width="8" height="8" transform="rotate(-103.618 -7.26135 756.392)" fill="#B0071D"/>
<rect x="4.52167" y="737.075" width="8" height="8" transform="rotate(-103.618 4.52167 737.075)" fill="#B0071D"/>
<rect x="16.3047" y="717.758" width="8" height="8" transform="rotate(-103.618 16.3047 717.758)" fill="#B0071D"/>
<rect x="10.4132" y="727.416" width="8" height="8" transform="rotate(-103.618 10.4132 727.416)" fill="#B0071D"/>
<rect x="22.1962" y="708.099" width="8" height="8" transform="rotate(-103.618 22.1962 708.099)" fill="#B0071D"/>
<rect x="-3.25342" y="738.959" width="8" height="8" transform="rotate(-13.618 -3.25342 738.959)" fill="#B0071D"/>
<rect x="88.5041" y="794.928" width="8" height="8" transform="rotate(-13.618 88.5041 794.928)" fill="#B0071D"/>
<rect x="107.821" y="806.711" width="8" height="8" transform="rotate(-13.618 107.821 806.711)" fill="#B0071D"/>
<rect x="78.8455" y="789.036" width="8" height="8" transform="rotate(-13.618 78.8455 789.036)" fill="#B0071D"/>
<rect x="98.1628" y="800.819" width="8" height="8" transform="rotate(-13.618 98.1628 800.819)" fill="#B0071D"/>
<rect x="127.139" y="818.494" width="8" height="8" transform="rotate(-13.618 127.139 818.494)" fill="#B0071D"/>
<rect x="146.456" y="830.277" width="8" height="8" transform="rotate(-13.618 146.456 830.277)" fill="#B0071D"/>
<rect x="136.797" y="824.385" width="8" height="8" transform="rotate(-13.618 136.797 824.385)" fill="#B0071D"/>
<rect x="156.115" y="836.168" width="8" height="8" transform="rotate(-13.618 156.115 836.168)" fill="#B0071D"/>
<rect x="101.689" y="849.354" width="8" height="8" transform="rotate(-103.618 101.689 849.354)" fill="#B0071D"/>
<rect x="113.472" y="830.036" width="8" height="8" transform="rotate(-103.618 113.472 830.036)" fill="#B0071D"/>
<rect x="95.7977" y="859.012" width="8" height="8" transform="rotate(-103.618 95.7977 859.012)" fill="#B0071D"/>
<rect x="107.581" y="839.695" width="8" height="8" transform="rotate(-103.618 107.581 839.695)" fill="#B0071D"/>
<rect x="125.255" y="810.719" width="8" height="8" transform="rotate(-103.618 125.255 810.719)" fill="#B0071D"/>
<rect x="137.038" y="791.401" width="8" height="8" transform="rotate(-103.618 137.038 791.401)" fill="#B0071D"/>
<rect x="131.147" y="801.06" width="8" height="8" transform="rotate(-103.618 131.147 801.06)" fill="#B0071D"/>
<rect x="142.93" y="781.743" width="8" height="8" transform="rotate(-103.618 142.93 781.743)" fill="#B0071D"/>
<rect x="117.48" y="812.602" width="8" height="8" transform="rotate(-13.618 117.48 812.602)" fill="#B0071D"/>
<rect x="14.8601" y="915.661" width="8" height="8" transform="rotate(-13.618 14.8601 915.661)" fill="#B0071D"/>
<rect x="34.1775" y="927.444" width="8" height="8" transform="rotate(-13.618 34.1775 927.444)" fill="#B0071D"/>
<rect x="5.20148" y="909.77" width="8" height="8" transform="rotate(-13.618 5.20148 909.77)" fill="#B0071D"/>
<rect x="24.5188" y="921.553" width="8" height="8" transform="rotate(-13.618 24.5188 921.553)" fill="#B0071D"/>
<rect x="53.4949" y="939.227" width="8" height="8" transform="rotate(-13.618 53.4949 939.227)" fill="#B0071D"/>
<rect x="72.8122" y="951.01" width="8" height="8" transform="rotate(-13.618 72.8122 951.01)" fill="#B0071D"/>
<rect x="63.1535" y="945.119" width="8" height="8" transform="rotate(-13.618 63.1535 945.119)" fill="#B0071D"/>
<rect x="82.4709" y="956.902" width="8" height="8" transform="rotate(-13.618 82.4709 956.902)" fill="#B0071D"/>
<rect x="28.0452" y="970.087" width="8" height="8" transform="rotate(-103.618 28.0452 970.087)" fill="#B0071D"/>
<rect x="39.8282" y="950.77" width="8" height="8" transform="rotate(-103.618 39.8282 950.77)" fill="#B0071D"/>
<rect x="22.1537" y="979.746" width="8" height="8" transform="rotate(-103.618 22.1537 979.746)" fill="#B0071D"/>
<rect x="33.9367" y="960.428" width="8" height="8" transform="rotate(-103.618 33.9367 960.428)" fill="#B0071D"/>
<rect x="51.6113" y="931.452" width="8" height="8" transform="rotate(-103.618 51.6113 931.452)" fill="#B0071D"/>
<rect x="63.3943" y="912.135" width="8" height="8" transform="rotate(-103.618 63.3943 912.135)" fill="#B0071D"/>
<rect x="57.5028" y="921.794" width="8" height="8" transform="rotate(-103.618 57.5028 921.794)" fill="#B0071D"/>
<rect x="69.2858" y="902.476" width="8" height="8" transform="rotate(-103.618 69.2858 902.476)" fill="#B0071D"/>
<rect x="43.8362" y="933.336" width="8" height="8" transform="rotate(-13.618 43.8362 933.336)" fill="#B0071D"/>
<rect x="135.594" y="989.305" width="8" height="8" transform="rotate(-13.618 135.594 989.305)" fill="#B0071D"/>
<rect x="154.911" y="1001.09" width="8" height="8" transform="rotate(-13.618 154.911 1001.09)" fill="#B0071D"/>
<rect x="125.935" y="983.414" width="8" height="8" transform="rotate(-13.618 125.935 983.414)" fill="#B0071D"/>
<rect x="145.252" y="995.197" width="8" height="8" transform="rotate(-13.618 145.252 995.197)" fill="#B0071D"/>
<rect x="174.228" y="1012.87" width="8" height="8" transform="rotate(-13.618 174.228 1012.87)" fill="#B0071D"/>
<rect x="193.546" y="1024.65" width="8" height="8" transform="rotate(-13.618 193.546 1024.65)" fill="#B0071D"/>
<rect x="183.887" y="1018.76" width="8" height="8" transform="rotate(-13.618 183.887 1018.76)" fill="#B0071D"/>
<rect x="160.562" y="1024.41" width="8" height="8" transform="rotate(-103.618 160.562 1024.41)" fill="#B0071D"/>
<rect x="172.345" y="1005.1" width="8" height="8" transform="rotate(-103.618 172.345 1005.1)" fill="#B0071D"/>
<rect x="184.128" y="985.779" width="8" height="8" transform="rotate(-103.618 184.128 985.779)" fill="#B0071D"/>
<rect x="178.236" y="995.438" width="8" height="8" transform="rotate(-103.618 178.236 995.438)" fill="#B0071D"/>
<rect x="190.019" y="976.12" width="8" height="8" transform="rotate(-103.618 190.019 976.12)" fill="#B0071D"/>
<rect x="164.57" y="1006.98" width="8" height="8" transform="rotate(-13.618 164.57 1006.98)" fill="#B0071D"/>
<rect x="-4.35809" y="1023.21" width="8" height="8" transform="rotate(-103.618 -4.35809 1023.21)" fill="#B0071D"/>
<rect x="162.148" y="674.194" width="8" height="8" transform="rotate(-13.618 162.148 674.194)" fill="#B0071D"/>
<rect x="181.465" y="685.977" width="8" height="8" transform="rotate(-13.618 181.465 685.977)" fill="#B0071D"/>
<rect x="152.489" y="668.303" width="8" height="8" transform="rotate(-13.618 152.489 668.303)" fill="#B0071D"/>
<rect x="171.807" y="680.086" width="8" height="8" transform="rotate(-13.618 171.807 680.086)" fill="#B0071D"/>
<rect x="200.783" y="697.76" width="8" height="8" transform="rotate(-13.618 200.783 697.76)" fill="#B0071D"/>
<rect x="220.1" y="709.544" width="8" height="8" transform="rotate(-13.618 220.1 709.544)" fill="#B0071D"/>
<rect x="210.441" y="703.652" width="8" height="8" transform="rotate(-13.618 210.441 703.652)" fill="#B0071D"/>
<rect x="229.759" y="715.435" width="8" height="8" transform="rotate(-13.618 229.759 715.435)" fill="#B0071D"/>
<rect x="175.333" y="728.62" width="8" height="8" transform="rotate(-103.618 175.333 728.62)" fill="#B0071D"/>
<rect x="187.116" y="709.303" width="8" height="8" transform="rotate(-103.618 187.116 709.303)" fill="#B0071D"/>
<rect x="169.442" y="738.279" width="8" height="8" transform="rotate(-103.618 169.442 738.279)" fill="#B0071D"/>
<rect x="181.225" y="718.961" width="8" height="8" transform="rotate(-103.618 181.225 718.961)" fill="#B0071D"/>
<rect x="198.899" y="689.985" width="8" height="8" transform="rotate(-103.618 198.899 689.985)" fill="#B0071D"/>
<rect x="210.682" y="670.668" width="8" height="8" transform="rotate(-103.618 210.682 670.668)" fill="#B0071D"/>
<rect x="204.791" y="680.327" width="8" height="8" transform="rotate(-103.618 204.791 680.327)" fill="#B0071D"/>
<rect x="216.574" y="661.009" width="8" height="8" transform="rotate(-103.618 216.574 661.009)" fill="#B0071D"/>
<rect x="191.124" y="691.869" width="8" height="8" transform="rotate(-13.618 191.124 691.869)" fill="#B0071D"/>
<rect x="282.881" y="747.838" width="8" height="8" transform="rotate(-13.618 282.881 747.838)" fill="#B0071D"/>
<rect x="302.199" y="759.621" width="8" height="8" transform="rotate(-13.618 302.199 759.621)" fill="#B0071D"/>
<rect x="273.223" y="741.947" width="8" height="8" transform="rotate(-13.618 273.223 741.947)" fill="#B0071D"/>
<rect x="292.54" y="753.73" width="8" height="8" transform="rotate(-13.618 292.54 753.73)" fill="#B0071D"/>
<rect x="321.516" y="771.404" width="8" height="8" transform="rotate(-13.618 321.516 771.404)" fill="#B0071D"/>
<rect x="340.834" y="783.187" width="8" height="8" transform="rotate(-13.618 340.834 783.187)" fill="#B0071D"/>
<rect x="331.175" y="777.296" width="8" height="8" transform="rotate(-13.618 331.175 777.296)" fill="#B0071D"/>
<rect x="350.492" y="789.079" width="8" height="8" transform="rotate(-13.618 350.492 789.079)" fill="#B0071D"/>
<rect x="296.067" y="802.264" width="8" height="8" transform="rotate(-103.618 296.067 802.264)" fill="#B0071D"/>
<rect x="307.85" y="782.947" width="8" height="8" transform="rotate(-103.618 307.85 782.947)" fill="#B0071D"/>
<rect x="290.175" y="811.923" width="8" height="8" transform="rotate(-103.618 290.175 811.923)" fill="#B0071D"/>
<rect x="301.958" y="792.605" width="8" height="8" transform="rotate(-103.618 301.958 792.605)" fill="#B0071D"/>
<rect x="319.633" y="763.629" width="8" height="8" transform="rotate(-103.618 319.633 763.629)" fill="#B0071D"/>
<rect x="331.416" y="744.312" width="8" height="8" transform="rotate(-103.618 331.416 744.312)" fill="#B0071D"/>
<rect x="325.524" y="753.971" width="8" height="8" transform="rotate(-103.618 325.524 753.971)" fill="#B0071D"/>
<rect x="337.307" y="734.653" width="8" height="8" transform="rotate(-103.618 337.307 734.653)" fill="#B0071D"/>
<rect x="311.858" y="765.513" width="8" height="8" transform="rotate(-13.618 311.858 765.513)" fill="#B0071D"/>
<rect x="209.238" y="868.572" width="8" height="8" transform="rotate(-13.618 209.238 868.572)" fill="#B0071D"/>
<rect x="228.555" y="880.355" width="8" height="8" transform="rotate(-13.618 228.555 880.355)" fill="#B0071D"/>
<rect x="199.579" y="862.68" width="8" height="8" transform="rotate(-13.618 199.579 862.68)" fill="#B0071D"/>
<rect x="218.896" y="874.463" width="8" height="8" transform="rotate(-13.618 218.896 874.463)" fill="#B0071D"/>
<rect x="247.872" y="892.138" width="8" height="8" transform="rotate(-13.618 247.872 892.138)" fill="#B0071D"/>
<rect x="267.19" y="903.921" width="8" height="8" transform="rotate(-13.618 267.19 903.921)" fill="#B0071D"/>
<rect x="257.531" y="898.029" width="8" height="8" transform="rotate(-13.618 257.531 898.029)" fill="#B0071D"/>
<rect x="276.848" y="909.812" width="8" height="8" transform="rotate(-13.618 276.848 909.812)" fill="#B0071D"/>
<rect x="222.423" y="922.997" width="8" height="8" transform="rotate(-103.618 222.423 922.997)" fill="#B0071D"/>
<rect x="234.206" y="903.68" width="8" height="8" transform="rotate(-103.618 234.206 903.68)" fill="#B0071D"/>
<rect x="216.531" y="932.656" width="8" height="8" transform="rotate(-103.618 216.531 932.656)" fill="#B0071D"/>
<rect x="228.314" y="913.339" width="8" height="8" transform="rotate(-103.618 228.314 913.339)" fill="#B0071D"/>
<rect x="245.989" y="884.363" width="8" height="8" transform="rotate(-103.618 245.989 884.363)" fill="#B0071D"/>
<rect x="257.772" y="865.045" width="8" height="8" transform="rotate(-103.618 257.772 865.045)" fill="#B0071D"/>
<rect x="251.88" y="874.704" width="8" height="8" transform="rotate(-103.618 251.88 874.704)" fill="#B0071D"/>
<rect x="263.663" y="855.387" width="8" height="8" transform="rotate(-103.618 263.663 855.387)" fill="#B0071D"/>
<rect x="238.214" y="886.246" width="8" height="8" transform="rotate(-13.618 238.214 886.246)" fill="#B0071D"/>
<rect x="329.971" y="942.216" width="8" height="8" transform="rotate(-13.618 329.971 942.216)" fill="#B0071D"/>
<rect x="349.288" y="953.999" width="8" height="8" transform="rotate(-13.618 349.288 953.999)" fill="#B0071D"/>
<rect x="320.312" y="936.324" width="8" height="8" transform="rotate(-13.618 320.312 936.324)" fill="#B0071D"/>
<rect x="339.63" y="948.107" width="8" height="8" transform="rotate(-13.618 339.63 948.107)" fill="#B0071D"/>
<rect x="368.606" y="965.782" width="8" height="8" transform="rotate(-13.618 368.606 965.782)" fill="#B0071D"/>
<rect x="387.923" y="977.565" width="8" height="8" transform="rotate(-13.618 387.923 977.565)" fill="#B0071D"/>
<rect x="378.264" y="971.673" width="8" height="8" transform="rotate(-13.618 378.264 971.673)" fill="#B0071D"/>
<rect x="397.582" y="983.456" width="8" height="8" transform="rotate(-13.618 397.582 983.456)" fill="#B0071D"/>
<rect x="343.156" y="996.641" width="8" height="8" transform="rotate(-103.618 343.156 996.641)" fill="#B0071D"/>
<rect x="354.939" y="977.324" width="8" height="8" transform="rotate(-103.618 354.939 977.324)" fill="#B0071D"/>
<rect x="337.265" y="1006.3" width="8" height="8" transform="rotate(-103.618 337.265 1006.3)" fill="#B0071D"/>
<rect x="349.048" y="986.983" width="8" height="8" transform="rotate(-103.618 349.048 986.983)" fill="#B0071D"/>
<rect x="366.722" y="958.007" width="8" height="8" transform="rotate(-103.618 366.722 958.007)" fill="#B0071D"/>
<rect x="378.505" y="938.689" width="8" height="8" transform="rotate(-103.618 378.505 938.689)" fill="#B0071D"/>
<rect x="372.614" y="948.348" width="8" height="8" transform="rotate(-103.618 372.614 948.348)" fill="#B0071D"/>
<rect x="384.397" y="929.031" width="8" height="8" transform="rotate(-103.618 384.397 929.031)" fill="#B0071D"/>
<rect x="358.947" y="959.89" width="8" height="8" transform="rotate(-13.618 358.947 959.89)" fill="#B0071D"/>
<rect x="341.328" y="630.804" width="8" height="8" transform="rotate(-13.618 341.328 630.804)" fill="#B0071D"/>
<rect x="360.646" y="642.587" width="8" height="8" transform="rotate(-13.618 360.646 642.587)" fill="#B0071D"/>
<rect x="331.669" y="624.913" width="8" height="8" transform="rotate(-13.618 331.669 624.913)" fill="#B0071D"/>
<rect x="350.987" y="636.696" width="8" height="8" transform="rotate(-13.618 350.987 636.696)" fill="#B0071D"/>
<rect x="379.963" y="654.37" width="8" height="8" transform="rotate(-13.618 379.963 654.37)" fill="#B0071D"/>
<rect x="399.28" y="666.154" width="8" height="8" transform="rotate(-13.618 399.28 666.154)" fill="#B0071D"/>
<rect x="389.622" y="660.262" width="8" height="8" transform="rotate(-13.618 389.622 660.262)" fill="#B0071D"/>
<rect x="408.939" y="672.045" width="8" height="8" transform="rotate(-13.618 408.939 672.045)" fill="#B0071D"/>
<rect x="354.513" y="685.23" width="8" height="8" transform="rotate(-103.618 354.513 685.23)" fill="#B0071D"/>
<rect x="366.296" y="665.913" width="8" height="8" transform="rotate(-103.618 366.296 665.913)" fill="#B0071D"/>
<rect x="348.622" y="694.889" width="8" height="8" transform="rotate(-103.618 348.622 694.889)" fill="#B0071D"/>
<rect x="360.405" y="675.571" width="8" height="8" transform="rotate(-103.618 360.405 675.571)" fill="#B0071D"/>
<rect x="378.079" y="646.595" width="8" height="8" transform="rotate(-103.618 378.079 646.595)" fill="#B0071D"/>
<rect x="389.862" y="627.278" width="8" height="8" transform="rotate(-103.618 389.862 627.278)" fill="#B0071D"/>
<rect x="383.971" y="636.937" width="8" height="8" transform="rotate(-103.618 383.971 636.937)" fill="#B0071D"/>
<rect x="395.754" y="617.619" width="8" height="8" transform="rotate(-103.618 395.754 617.619)" fill="#B0071D"/>
<rect x="370.304" y="648.479" width="8" height="8" transform="rotate(-13.618 370.304 648.479)" fill="#B0071D"/>
<rect x="388.418" y="825.182" width="8" height="8" transform="rotate(-13.618 388.418 825.182)" fill="#B0071D"/>
<rect x="407.735" y="836.965" width="8" height="8" transform="rotate(-13.618 407.735 836.965)" fill="#B0071D"/>
<rect x="378.759" y="819.29" width="8" height="8" transform="rotate(-13.618 378.759 819.29)" fill="#B0071D"/>
<rect x="398.076" y="831.073" width="8" height="8" transform="rotate(-13.618 398.076 831.073)" fill="#B0071D"/>
<rect x="427.052" y="848.748" width="8" height="8" transform="rotate(-13.618 427.052 848.748)" fill="#B0071D"/>
<rect x="446.37" y="860.531" width="8" height="8" transform="rotate(-13.618 446.37 860.531)" fill="#B0071D"/>
<rect x="436.711" y="854.639" width="8" height="8" transform="rotate(-13.618 436.711 854.639)" fill="#B0071D"/>
<rect x="456.029" y="866.422" width="8" height="8" transform="rotate(-13.618 456.029 866.422)" fill="#B0071D"/>
<rect x="401.603" y="879.608" width="8" height="8" transform="rotate(-103.618 401.603 879.608)" fill="#B0071D"/>
<rect x="413.386" y="860.29" width="8" height="8" transform="rotate(-103.618 413.386 860.29)" fill="#B0071D"/>
<rect x="395.711" y="889.266" width="8" height="8" transform="rotate(-103.618 395.711 889.266)" fill="#B0071D"/>
<rect x="407.494" y="869.949" width="8" height="8" transform="rotate(-103.618 407.494 869.949)" fill="#B0071D"/>
<rect x="425.169" y="840.973" width="8" height="8" transform="rotate(-103.618 425.169 840.973)" fill="#B0071D"/>
<rect x="436.952" y="821.655" width="8" height="8" transform="rotate(-103.618 436.952 821.655)" fill="#B0071D"/>
<rect x="431.06" y="831.314" width="8" height="8" transform="rotate(-103.618 431.06 831.314)" fill="#B0071D"/>
<rect x="442.843" y="811.997" width="8" height="8" transform="rotate(-103.618 442.843 811.997)" fill="#B0071D"/>
<rect x="417.394" y="842.856" width="8" height="8" transform="rotate(-13.618 417.394 842.856)" fill="#B0071D"/>
<rect x="435.507" y="1019.56" width="8" height="8" transform="rotate(-13.618 435.507 1019.56)" fill="#B0071D"/>
<rect x="425.849" y="1013.67" width="8" height="8" transform="rotate(-13.618 425.849 1013.67)" fill="#B0071D"/>
<rect x="445.166" y="1025.45" width="8" height="8" transform="rotate(-13.618 445.166 1025.45)" fill="#B0071D"/>
<rect x="484.041" y="1016.03" width="8" height="8" transform="rotate(-103.618 484.041 1016.03)" fill="#B0071D"/>
<rect x="478.15" y="1025.69" width="8" height="8" transform="rotate(-103.618 478.15 1025.69)" fill="#B0071D"/>
<rect x="489.933" y="1006.37" width="8" height="8" transform="rotate(-103.618 489.933 1006.37)" fill="#B0071D"/>
<circle cx="1071.84" cy="91.9392" r="23" transform="rotate(13.9475 1071.84 91.9392)" stroke="#BE0E25" stroke-width="2"/>
<circle cx="950.681" cy="164.888" r="23" transform="rotate(13.9475 950.681 164.888)" stroke="#BE0E25" stroke-width="2"/>
<circle cx="1023.63" cy="286.043" r="23" transform="rotate(13.9475 1023.63 286.043)" stroke="#BE0E25" stroke-width="2"/>
<circle cx="1387.09" cy="67.1973" r="23" transform="rotate(13.9475 1387.09 67.1973)" stroke="#BE0E25" stroke-width="2"/>
<circle cx="1460.04" cy="188.352" r="23" transform="rotate(13.9475 1460.04 188.352)" stroke="#BE0E25" stroke-width="2"/>
<circle cx="1338.89" cy="261.301" r="23" transform="rotate(13.9475 1338.89 261.301)" stroke="#BE0E25" stroke-width="2"/>
<circle cx="1411.84" cy="382.456" r="23" transform="rotate(13.9475 1411.84 382.456)" stroke="#BE0E25" stroke-width="2"/>
<circle cx="1192.99" cy="18.9908" r="23" transform="rotate(13.9475 1192.99 18.9908)" stroke="#BE0E25" stroke-width="2"/>
<circle cx="1265.94" cy="140.146" r="23" transform="rotate(13.9475 1265.94 140.146)" stroke="#BE0E25" stroke-width="2"/>
<circle cx="1144.78" cy="213.094" r="23" transform="rotate(13.9475 1144.78 213.094)" stroke="#BE0E25" stroke-width="2"/>
<circle cx="1217.73" cy="334.249" r="23" transform="rotate(13.9475 1217.73 334.249)" stroke="#BE0E25" stroke-width="2"/>
</g>
<defs>
<clipPath id="clip0_2_4">
<rect width="1440" height="1024" fill="white"/>
</clipPath>
</defs>
</svg>
